<?xml version="1.0" encoding="UTF-8"?>
<svg version="1.1" xmlns="http://www.w3.org/2000/svg" width="3626" height="1035">
<path d="M0 0 C22.11 0 44.22 0 67 0 C69.97 5.28 72.94 10.56 76 16 C78.54799778 20.34311983 81.10591869 24.67712322 83.6875 29 C85.08984094 31.35599934 86.49041728 33.71304485 87.890625 36.0703125 C88.41262733 36.94878342 88.41262733 36.94878342 88.94517517 37.84500122 C92.30534884 43.50459877 95.62634363 49.1866277 98.9375 54.875 C104.07247887 63.69387987 109.21564973 72.50785808 114.375 81.3125 C114.72681335 81.91289093 115.07862671 82.51328186 115.44110107 83.13186646 C123.24717858 96.44902483 131.11621838 109.7287268 139 123 C141.65565787 120.60030318 143.27998553 118.03555811 145.046875 114.93359375 C145.63670166 113.90411621 146.22652832 112.87463867 146.83422852 111.81396484 C147.46643311 110.69973145 148.0986377 109.58549805 148.75 108.4375 C149.41867512 107.2674468 150.08787351 106.0976925 150.75756836 104.92822266 C152.14953254 102.49645633 153.53923202 100.06341756 154.92724609 97.62939453 C158.12019395 92.03377343 161.34176084 86.45465587 164.5625 80.875 C165.49304199 79.26129517 165.49304199 79.26129517 166.44238281 77.61499023 C171.17546021 69.41226374 175.94308578 61.23008421 180.72192383 53.05395508 C185.09162917 45.57227512 189.42588106 38.07060422 193.75 30.5625 C198.1029771 23.00788076 202.46317918 15.45794512 206.875 7.9375 C207.49133301 6.88381226 207.49133301 6.88381226 208.12011719 5.80883789 C210.87936946 1.12063054 210.87936946 1.12063054 212 0 C232.79 0 253.58 0 275 0 C275 89.76 275 179.52 275 272 C256.52 272 238.04 272 219 272 C218.67 207.98 218.34 143.96 218 78 C211.07 90.375 211.07 90.375 204 103 C199.125 111.3125 199.125 111.3125 196.73828125 115.3359375 C193.19884089 121.33276456 189.76116369 127.38821472 186.3125 133.4375 C180.87617455 142.97113141 175.423021 152.49457632 169.9375 162 C169.34300049 163.0305249 168.74850098 164.0610498 168.13598633 165.12280273 C166.99321963 167.10176373 165.83352964 169.07106199 164.65600586 171.02954102 C162.91830966 174.00186239 162.91830966 174.00186239 161.64282227 177.35913086 C160.07747928 180.90130693 158.78813672 183.29823263 156 186 C150.76977646 187.58813681 145.96610818 187.77496615 140.53051758 187.61938477 C138.0630212 187.56251201 135.62423537 187.63900761 133.15820312 187.72851562 C121.90972207 187.83079471 121.90972207 187.83079471 117.37719727 183.4855957 C115.63062955 180.6725719 114.166808 177.87802765 112.84317017 174.84463501 C111.45556006 171.80890832 109.68714583 169.01060934 107.95703125 166.16015625 C107.27350443 164.9969299 106.5925404 163.83219408 105.9140625 162.66601562 C103.7127624 158.89139686 101.50717235 155.11930109 99.30078125 151.34765625 C98.93062897 150.71461578 98.56047668 150.08157532 98.17910767 149.42935181 C94.96984757 143.9427536 91.73892754 138.46913548 88.5 133 C84.8975699 126.9156415 81.30728669 120.82438715 77.734375 114.72265625 C77.36344727 114.08927338 76.99251953 113.4558905 76.61035156 112.80331421 C74.79691787 109.70619908 72.98458782 106.60844485 71.17382812 103.50976562 C66.17569143 94.9682813 61.09249168 86.48748613 56 78 C55.67 142.02 55.34 206.04 55 272 C36.85 272 18.7 272 0 272 C0 182.24 0 92.48 0 0 Z " fill="#000000" transform="translate(43,9)"/>
<path d="M0 0 C6.58811509 5.57455892 11.94181119 11.50862238 15.8125 19.25 C15.8125 19.91 15.8125 20.57 15.8125 21.25 C16.31136719 20.86070313 16.81023438 20.47140625 17.32421875 20.0703125 C18.88356193 18.85531261 20.44648241 17.64489848 22.01171875 16.4375 C23.92878142 14.94021256 25.82653938 13.41796769 27.70703125 11.875 C48.72821273 -5.04771213 72.76253783 -12.70872724 99.8125 -10.75 C114.64381274 -8.73623405 129.30021219 -2.7988979 138.8125 9.25 C149.77022994 25.66591994 153.14991717 42.98116522 153.03955078 62.55566406 C153.03898512 63.9465789 153.03930624 65.33749432 153.04043579 66.72840881 C153.04100427 70.4652361 153.02933277 74.2019322 153.01528788 77.93872929 C153.00269537 81.85845824 153.00160336 85.77819095 152.99923706 89.69793701 C152.99304713 97.10304481 152.97667036 104.5080928 152.95653808 111.91317439 C152.93410119 120.35101042 152.92316615 128.78884945 152.91314721 137.22670794 C152.89230162 154.56784571 152.85565688 171.90890122 152.8125 189.25 C134.9925 189.25 117.1725 189.25 98.8125 189.25 C98.76351562 180.36578125 98.71453125 171.4815625 98.6640625 162.328125 C98.62415449 155.96812921 98.58303393 149.60815026 98.54016876 143.24817467 C98.48486731 135.01915039 98.43238267 126.79014051 98.390625 118.56103516 C98.35754259 112.04335915 98.31762349 105.52576578 98.26970994 99.00818133 C98.24460527 95.56154204 98.22277806 92.11495642 98.20915604 88.66825104 C98.19376971 84.80770648 98.16311033 80.94736016 98.13134766 77.08691406 C98.12918747 75.96121506 98.12702728 74.83551605 98.12480164 73.67570496 C98.0113441 62.81863291 96.83063263 52.97263196 91.8125 43.25 C91.30589844 42.16912109 91.30589844 42.16912109 90.7890625 41.06640625 C89.46981334 38.61260282 88.40526253 38.27345889 85.8125 37.25 C84.62269531 36.7446875 83.43289062 36.239375 82.20703125 35.71875 C77.78707308 34.07277599 73.81193913 33.7477506 69.125 33.8125 C68.34116943 33.82079834 67.55733887 33.82909668 66.74975586 33.83764648 C54.79202106 34.1808314 45.3756999 38.23085079 35.8125 45.25 C34.8607725 45.94087393 33.90904501 46.63174786 32.92847729 47.34355736 C27.68382503 51.56556511 24.1983897 54.64655427 23.45173645 61.53970337 C23.40262126 63.92131708 23.41283696 66.30464797 23.47192383 68.68603516 C23.45488403 70.64869324 23.45488403 70.64869324 23.4375 72.65100098 C23.4078323 76.20946062 23.44513316 79.76432757 23.49523759 83.32243776 C23.53610623 87.05141187 23.51433023 90.7800316 23.49943542 94.50912476 C23.48068168 101.55713847 23.51758658 108.60369723 23.57490796 115.65145814 C23.63747021 123.68061684 23.63735001 131.70940117 23.63218272 139.73875737 C23.62295426 156.24325238 23.70000316 172.74581757 23.8125 189.25 C5.9925 189.25 -11.8275 189.25 -30.1875 189.25 C-30.23648438 180.61714844 -30.28546875 171.98429687 -30.3359375 163.08984375 C-30.375861 156.8990344 -30.41698481 150.70824205 -30.45983124 144.51745319 C-30.51506769 136.5135299 -30.5675443 128.50962103 -30.609375 120.50561523 C-30.64252262 114.16480052 -30.6824756 107.82406963 -30.73029006 101.48334795 C-30.75533136 98.13217048 -30.77615963 94.78110168 -30.79084396 91.42985344 C-29.51308875 64.52954221 -29.51308875 64.52954221 -39.6015625 40.63671875 C-45.70870786 35.10109769 -52.08587675 33.72912527 -60 33.875 C-60.79535156 33.88515137 -61.59070312 33.89530273 -62.41015625 33.90576172 C-77.8353535 34.31218542 -88.33580277 41.7630657 -99.1875 52.25 C-100.0468364 52.85970139 -100.90617279 53.46940277 -101.79154968 54.09757996 C-105.5399326 59.02943407 -104.88971715 63.90043167 -104.84692383 69.93481445 C-104.86264938 71.86711662 -104.86264938 71.86711662 -104.87869263 73.8384552 C-104.90681559 77.363017 -104.90437186 80.88696974 -104.89639878 84.41160989 C-104.89327193 88.09791794 -104.9183132 91.78403261 -104.94035339 95.47026062 C-104.97779505 102.44707445 -104.98994144 109.42369337 -104.9929778 116.40059775 C-104.99766852 124.34503367 -105.03059219 132.28927432 -105.06587565 140.2336241 C-105.13780978 156.5724401 -105.17060001 172.91102031 -105.1875 189.25 C-123.3375 189.25 -141.4875 189.25 -160.1875 189.25 C-160.1875 124.24 -160.1875 59.23 -160.1875 -7.75 C-142.6975 -7.75 -125.2075 -7.75 -107.1875 -7.75 C-106.8575 -1.15 -106.5275 5.45 -106.1875 12.25 C-105.6925 15.22 -105.6925 15.22 -105.1875 18.25 C-104.68863281 17.70472656 -104.18976562 17.15945312 -103.67578125 16.59765625 C-79.333587 -8.96820306 -30.76587012 -23.6411423 0 0 Z " fill="#000000" transform="translate(3439.1875,91.75)"/>
<path d="M0 0 C6.58811509 5.57455892 11.94181119 11.50862238 15.8125 19.25 C15.8125 19.91 15.8125 20.57 15.8125 21.25 C16.31136719 20.86070313 16.81023437 20.47140625 17.32421875 20.0703125 C18.88356193 18.85531261 20.44648241 17.64489848 22.01171875 16.4375 C23.92878142 14.94021256 25.82653938 13.41796769 27.70703125 11.875 C48.72821273 -5.04771213 72.76253783 -12.70872724 99.8125 -10.75 C114.64381274 -8.73623405 129.30021219 -2.7988979 138.8125 9.25 C149.77022994 25.66591994 153.14991717 42.98116522 153.03955078 62.55566406 C153.03898512 63.9465789 153.03930624 65.33749432 153.04043579 66.72840881 C153.04100427 70.4652361 153.02933277 74.2019322 153.01528788 77.93872929 C153.00269537 81.85845824 153.00160336 85.77819095 152.99923706 89.69793701 C152.99304713 97.10304481 152.97667036 104.5080928 152.95653808 111.91317439 C152.93410119 120.35101042 152.92316615 128.78884945 152.91314721 137.22670794 C152.89230162 154.56784571 152.85565688 171.90890122 152.8125 189.25 C134.9925 189.25 117.1725 189.25 98.8125 189.25 C98.76351563 180.36578125 98.71453125 171.4815625 98.6640625 162.328125 C98.62415449 155.96812921 98.58303393 149.60815026 98.54016876 143.24817467 C98.48486731 135.01915039 98.43238267 126.79014051 98.390625 118.56103516 C98.35754259 112.04335915 98.31762349 105.52576578 98.26970994 99.00818133 C98.24460527 95.56154204 98.22277806 92.11495642 98.20915604 88.66825104 C98.19376971 84.80770648 98.16311033 80.94736016 98.13134766 77.08691406 C98.12918747 75.96121506 98.12702728 74.83551605 98.12480164 73.67570496 C98.0113441 62.81863291 96.83063263 52.97263196 91.8125 43.25 C91.30589844 42.16912109 91.30589844 42.16912109 90.7890625 41.06640625 C89.46981334 38.61260282 88.40526253 38.27345889 85.8125 37.25 C84.62269531 36.7446875 83.43289063 36.239375 82.20703125 35.71875 C77.78707308 34.07277599 73.81193913 33.7477506 69.125 33.8125 C68.34116943 33.82079834 67.55733887 33.82909668 66.74975586 33.83764648 C54.79202106 34.1808314 45.3756999 38.23085079 35.8125 45.25 C34.8607725 45.94087393 33.90904501 46.63174786 32.92847729 47.34355736 C27.68382503 51.56556511 24.1983897 54.64655427 23.45173645 61.53970337 C23.40262126 63.92131708 23.41283696 66.30464797 23.47192383 68.68603516 C23.45488403 70.64869324 23.45488403 70.64869324 23.4375 72.65100098 C23.4078323 76.20946062 23.44513316 79.76432757 23.49523759 83.32243776 C23.53610623 87.05141187 23.51433023 90.7800316 23.49943542 94.50912476 C23.48068168 101.55713847 23.51758658 108.60369723 23.57490796 115.65145814 C23.63747021 123.68061684 23.63735001 131.70940117 23.63218272 139.73875737 C23.62295426 156.24325238 23.70000316 172.74581757 23.8125 189.25 C5.9925 189.25 -11.8275 189.25 -30.1875 189.25 C-30.23648437 180.61714844 -30.28546875 171.98429687 -30.3359375 163.08984375 C-30.375861 156.8990344 -30.41698481 150.70824205 -30.45983124 144.51745319 C-30.51506769 136.5135299 -30.5675443 128.50962103 -30.609375 120.50561523 C-30.64252262 114.16480052 -30.6824756 107.82406963 -30.73029006 101.48334795 C-30.75533136 98.13217048 -30.77615963 94.78110168 -30.79084396 91.42985344 C-29.51308875 64.52954221 -29.51308875 64.52954221 -39.6015625 40.63671875 C-45.70870786 35.10109769 -52.08587675 33.72912527 -60 33.875 C-60.79535156 33.88515137 -61.59070312 33.89530273 -62.41015625 33.90576172 C-77.8353535 34.31218542 -88.33580277 41.7630657 -99.1875 52.25 C-100.0468364 52.85970139 -100.90617279 53.46940277 -101.79154968 54.09757996 C-105.5399326 59.02943407 -104.88971715 63.90043167 -104.84692383 69.93481445 C-104.86264938 71.86711662 -104.86264938 71.86711662 -104.87869263 73.8384552 C-104.90681559 77.363017 -104.90437186 80.88696974 -104.89639878 84.41160989 C-104.89327193 88.09791794 -104.9183132 91.78403261 -104.94035339 95.47026062 C-104.97779505 102.44707445 -104.98994144 109.42369337 -104.9929778 116.40059775 C-104.99766852 124.34503367 -105.03059219 132.28927432 -105.06587565 140.2336241 C-105.13780978 156.5724401 -105.17060001 172.91102031 -105.1875 189.25 C-123.3375 189.25 -141.4875 189.25 -160.1875 189.25 C-160.1875 124.24 -160.1875 59.23 -160.1875 -7.75 C-142.6975 -7.75 -125.2075 -7.75 -107.1875 -7.75 C-106.8575 -1.15 -106.5275 5.45 -106.1875 12.25 C-105.6925 15.22 -105.6925 15.22 -105.1875 18.25 C-104.68863281 17.70472656 -104.18976563 17.15945312 -103.67578125 16.59765625 C-79.333587 -8.96820306 -30.76587012 -23.6411423 0 0 Z " fill="#000000" transform="translate(1612.1875,91.75)"/>
<path d="M0 0 C6.58811509 5.57455892 11.94181119 11.50862238 15.8125 19.25 C15.8125 19.91 15.8125 20.57 15.8125 21.25 C16.31136719 20.86070313 16.81023437 20.47140625 17.32421875 20.0703125 C18.88356193 18.85531261 20.44648241 17.64489848 22.01171875 16.4375 C23.92878142 14.94021256 25.82653938 13.41796769 27.70703125 11.875 C48.72821273 -5.04771213 72.76253783 -12.70872724 99.8125 -10.75 C114.64381274 -8.73623405 129.30021219 -2.7988979 138.8125 9.25 C149.77022994 25.66591994 153.14991717 42.98116522 153.03955078 62.55566406 C153.03898512 63.9465789 153.03930624 65.33749432 153.04043579 66.72840881 C153.04100427 70.4652361 153.02933277 74.2019322 153.01528788 77.93872929 C153.00269537 81.85845824 153.00160336 85.77819095 152.99923706 89.69793701 C152.99304713 97.10304481 152.97667036 104.5080928 152.95653808 111.91317439 C152.93410119 120.35101042 152.92316615 128.78884945 152.91314721 137.22670794 C152.89230162 154.56784571 152.85565688 171.90890122 152.8125 189.25 C134.9925 189.25 117.1725 189.25 98.8125 189.25 C98.76351563 180.36578125 98.71453125 171.4815625 98.6640625 162.328125 C98.62415449 155.96812921 98.58303393 149.60815026 98.54016876 143.24817467 C98.48486731 135.01915039 98.43238267 126.79014051 98.390625 118.56103516 C98.35754259 112.04335915 98.31762349 105.52576578 98.26970994 99.00818133 C98.24460527 95.56154204 98.22277806 92.11495642 98.20915604 88.66825104 C98.19376971 84.80770648 98.16311033 80.94736016 98.13134766 77.08691406 C98.12918747 75.96121506 98.12702728 74.83551605 98.12480164 73.67570496 C98.0113441 62.81863291 96.83063263 52.97263196 91.8125 43.25 C91.30589844 42.16912109 91.30589844 42.16912109 90.7890625 41.06640625 C89.46981334 38.61260282 88.40526253 38.27345889 85.8125 37.25 C84.62269531 36.7446875 83.43289063 36.239375 82.20703125 35.71875 C77.78707308 34.07277599 73.81193913 33.7477506 69.125 33.8125 C68.34116943 33.82079834 67.55733887 33.82909668 66.74975586 33.83764648 C54.79202106 34.1808314 45.3756999 38.23085079 35.8125 45.25 C34.8607725 45.94087393 33.90904501 46.63174786 32.92847729 47.34355736 C27.68382503 51.56556511 24.1983897 54.64655427 23.45173645 61.53970337 C23.40262126 63.92131708 23.41283696 66.30464797 23.47192383 68.68603516 C23.45488403 70.64869324 23.45488403 70.64869324 23.4375 72.65100098 C23.4078323 76.20946062 23.44513316 79.76432757 23.49523759 83.32243776 C23.53610623 87.05141187 23.51433023 90.7800316 23.49943542 94.50912476 C23.48068168 101.55713847 23.51758658 108.60369723 23.57490796 115.65145814 C23.63747021 123.68061684 23.63735001 131.70940117 23.63218272 139.73875737 C23.62295426 156.24325238 23.70000316 172.74581757 23.8125 189.25 C5.9925 189.25 -11.8275 189.25 -30.1875 189.25 C-30.23648437 180.61714844 -30.28546875 171.98429687 -30.3359375 163.08984375 C-30.375861 156.8990344 -30.41698481 150.70824205 -30.45983124 144.51745319 C-30.51506769 136.5135299 -30.5675443 128.50962103 -30.609375 120.50561523 C-30.64252262 114.16480052 -30.6824756 107.82406963 -30.73029006 101.48334795 C-30.75533136 98.13217048 -30.77615963 94.78110168 -30.79084396 91.42985344 C-29.51308875 64.52954221 -29.51308875 64.52954221 -39.6015625 40.63671875 C-45.70870786 35.10109769 -52.08587675 33.72912527 -60 33.875 C-60.79535156 33.88515137 -61.59070312 33.89530273 -62.41015625 33.90576172 C-77.8353535 34.31218542 -88.33580277 41.7630657 -99.1875 52.25 C-100.0468364 52.85970139 -100.90617279 53.46940277 -101.79154968 54.09757996 C-105.5399326 59.02943407 -104.88971715 63.90043167 -104.84692383 69.93481445 C-104.86264938 71.86711662 -104.86264938 71.86711662 -104.87869263 73.8384552 C-104.90681559 77.363017 -104.90437186 80.88696974 -104.89639878 84.41160989 C-104.89327193 88.09791794 -104.9183132 91.78403261 -104.94035339 95.47026062 C-104.97779505 102.44707445 -104.98994144 109.42369337 -104.9929778 116.40059775 C-104.99766852 124.34503367 -105.03059219 132.28927432 -105.06587565 140.2336241 C-105.13780978 156.5724401 -105.17060001 172.91102031 -105.1875 189.25 C-123.3375 189.25 -141.4875 189.25 -160.1875 189.25 C-160.1875 124.24 -160.1875 59.23 -160.1875 -7.75 C-142.6975 -7.75 -125.2075 -7.75 -107.1875 -7.75 C-106.8575 -1.15 -106.5275 5.45 -106.1875 12.25 C-105.6925 15.22 -105.6925 15.22 -105.1875 18.25 C-104.68863281 17.70472656 -104.18976563 17.15945312 -103.67578125 16.59765625 C-79.333587 -8.96820306 -30.76587012 -23.6411423 0 0 Z " fill="#000000" transform="translate(1245.1875,91.75)"/>
<path d="M0 0 C20.13 0 40.26 0 61 0 C63.454375 6.950625 65.90875 13.90125 68.4375 21.0625 C76.11921156 42.77702063 83.92321654 64.44534085 91.77581787 86.098526 C95.76438616 97.10086909 99.72627826 108.11278827 103.6875 119.125 C110.21575602 137.27050565 116.75341458 155.41260162 123.29741669 173.55243301 C130.55798604 193.67879371 137.8146862 213.80654139 145.0625 233.9375 C145.43431396 234.97003906 145.80612793 236.00257813 146.18920898 237.06640625 C147.87917072 241.75969305 149.568201 246.45330718 151.25439453 251.14794922 C152.36355448 254.23527427 153.47888499 257.32022036 154.60107422 260.40283203 C154.83974716 261.06174942 155.0784201 261.72066681 155.32432556 262.39955139 C155.94264627 264.10636936 156.56383903 265.81214617 157.18530273 267.51782227 C158 270 158 270 158 272 C138.2 272 118.4 272 98 272 C96.164375 266.51375 94.32875 261.0275 92.4375 255.375 C91.87474365 253.69583496 91.3119873 252.01666992 90.73217773 250.28662109 C86.70407683 238.22373342 82.85723503 226.12273867 79 214 C46.99 214 14.98 214 -18 214 C-24.20945724 232.33906778 -24.20945724 232.33906778 -30.41577148 250.67919922 C-31.19243121 252.9710674 -31.9691979 255.26289935 -32.74609375 257.5546875 C-33.35378601 259.35305054 -33.35378601 259.35305054 -33.97375488 261.18774414 C-34.35938599 262.32445557 -34.74501709 263.46116699 -35.14233398 264.63232422 C-35.47764633 265.62271698 -35.81295868 266.61310974 -36.15843201 267.6335144 C-37 270 -37 270 -38 272 C-57.47 272 -76.94 272 -97 272 C-94.75008535 261.87538409 -94.75008535 261.87538409 -93.40625 258.18188477 C-93.1033757 257.34082687 -92.8005014 256.49976898 -92.4884491 255.63322449 C-92.16226089 254.74492447 -91.83607269 253.85662445 -91.5 252.94140625 C-90.97911552 251.50182304 -90.97911552 251.50182304 -90.44770813 250.03315735 C-89.30353178 246.87441027 -88.15170256 243.71850986 -87 240.5625 C-86.18454952 238.31483001 -85.36970053 236.06694173 -84.55541992 233.81884766 C-82.86790791 229.16141593 -81.17783261 224.50492681 -79.48583984 219.84912109 C-76.10302619 210.53555116 -72.74886024 201.21171077 -69.39590454 191.88735962 C-68.2960381 188.8292284 -67.19538175 185.77138258 -66.09448242 182.71362305 C-60.23703464 166.44412694 -54.3875152 150.17178321 -48.5397644 133.8987999 C-47.81339243 131.8774834 -47.08699688 129.85617538 -46.3605957 127.83486938 C-41.3664056 113.93778333 -36.37325856 100.04032368 -31.38285828 86.14187622 C-12.61411891 33.87040393 -12.61411891 33.87040393 -5.625 14.625 C-5.38093414 13.95187775 -5.13686829 13.27875549 -4.88540649 12.5852356 C-4.22965986 10.77768101 -3.57193695 8.97084373 -2.9140625 7.1640625 C-2.3873999 5.71700928 -2.3873999 5.71700928 -1.85009766 4.24072266 C-1 2 -1 2 0 0 Z M30 59 C21.80771181 82.49960423 14.00235004 106.10593999 6.47070312 129.82568359 C6.14654419 130.84633911 5.82238525 131.86699463 5.48840332 132.9185791 C4.85905121 134.9010262 4.23036957 136.88368629 3.60241699 138.86657715 C1.43443911 145.69422136 -0.82602737 152.484964 -3.16992188 159.25415039 C-4.14468478 162.00051298 -4.14468478 162.00051298 -4 165 C18.77 165 41.54 165 65 165 C56.80290953 138.9621832 48.43618806 112.98833865 39.89850616 87.06092834 C39.28488539 85.19709827 38.67184125 83.33307838 38.05880737 81.46905518 C37.30422451 79.17514386 36.54845928 76.88162101 35.79129028 74.58856201 C34.0901104 69.41689019 32.44213295 64.25012712 31 59 C30.67 59 30.34 59 30 59 Z " fill="#000000" transform="translate(2441,9)"/>
<path d="M0 0 C17.82 0 35.64 0 54 0 C54 89.76 54 179.52 54 272 C36.84 272 19.68 272 2 272 C1.01 261.605 1.01 261.605 0 251 C-0.33 249.68 -0.66 248.36 -1 247 C-1.40089844 247.4846875 -1.80179688 247.969375 -2.21484375 248.46875 C-15.11309936 263.67757748 -31.3402589 273.41027315 -51.40625 275.71875 C-74.50308133 277.5263281 -95.1253493 273.03699325 -113.125 257.875 C-127.68729989 244.2358253 -134.84493949 226.07255097 -139 207 C-139.35384766 205.38738281 -139.35384766 205.38738281 -139.71484375 203.7421875 C-145.59036603 171.57691954 -143.03140125 133.09187435 -125 105 C-111.5370226 86.01313668 -93.63164036 75.97909628 -71 72 C-50.40216173 70.60239282 -30.14990277 71.83781717 -13.66796875 85.72265625 C-8.99070188 89.85174078 -4.90862674 94.11421657 -1 99 C-0.67 66.33 -0.34 33.66 0 0 Z M-73.75 125.6875 C-87.66302263 142.6278933 -87.51654594 167.91001576 -85.78173828 188.60351562 C-83.98315178 203.81405733 -79.33409727 218.86519567 -66.9453125 228.6796875 C-58.14125005 234.65513551 -48.33210294 235.31163727 -38 234 C-28.94681495 231.94576323 -21.76579291 228.30967204 -15 222 C-14.22914063 221.29617187 -13.45828125 220.59234375 -12.6640625 219.8671875 C-5.92725145 213.44371649 0.16054161 207.40088339 0.77636719 197.72094727 C0.81564252 195.33641389 0.82075792 192.95114346 0.796875 190.56640625 C0.80548553 188.65673317 0.80548553 188.65673317 0.81427002 186.70848083 C0.81833964 184.02533457 0.81043942 181.34550928 0.78222656 178.6628418 C0.74807236 175.25189376 0.76772749 171.84378238 0.80366135 168.43293858 C0.83076144 165.14399813 0.81169355 161.85538401 0.796875 158.56640625 C0.80902039 157.35569962 0.82116577 156.14499298 0.8336792 154.89759827 C0.60497398 140.97404164 -7.29719005 132.57280472 -16.8515625 123.1796875 C-25.77326346 115.07275375 -35.88771987 112.52089057 -47.7578125 112.75390625 C-58.21053609 113.54730575 -66.57587199 118.12600006 -73.75 125.6875 Z " fill="#000000" transform="translate(2179,9)"/>
<path d="M0 0 C17.82 0 35.64 0 54 0 C54.33 33.33 54.66 66.66 55 101 C58.3 97.7 61.6 94.4 65 91 C84.12196454 75.45368737 105.90356513 70.51904113 130 72 C146.09050994 73.77550454 160.96135143 79.79198953 171.37890625 92.6328125 C182.77189092 109.26931542 185.17000775 127.92561656 185.11352539 147.68969727 C185.11324281 149.05061338 185.11340264 150.41152965 185.1139679 151.77244568 C185.11425309 155.44123079 185.10840151 159.10998274 185.10139394 162.77876019 C185.09511392 166.62243812 185.09455294 170.46611693 185.09336853 174.30979919 C185.09026887 181.57686323 185.08207397 188.8439121 185.07201904 196.11096948 C185.06081539 204.38913226 185.05533676 212.66729578 185.05032361 220.94546425 C185.03989014 237.9636531 185.02156173 254.98182107 185 272 C167.18 272 149.36 272 131 272 C130.95101562 263.36714844 130.90203125 254.73429687 130.8515625 245.83984375 C130.811639 239.6490344 130.77051519 233.45824205 130.72766876 227.26745319 C130.67243231 219.2635299 130.6199557 211.25962103 130.578125 203.25561523 C130.54497738 196.91480052 130.5050244 190.57406963 130.45720994 184.23334795 C130.43216864 180.88217048 130.41134037 177.53110168 130.39665604 174.17985344 C131.67540415 147.07954789 131.67540415 147.07954789 121.328125 123.12890625 C114.04974126 116.41411417 105.99765179 116.472961 96.609375 116.69921875 C84.6261154 117.29641565 75.01375802 122.34225968 66 130 C65.18397371 130.65851141 64.36794743 131.31702282 63.52719307 131.99548912 C58.62416121 136.32877577 55.41884198 139.53469817 54.75949097 146.21377563 C54.71325879 148.5595463 54.72087824 150.90679308 54.77294922 153.25244141 C54.76173538 154.54137299 54.75052155 155.83030457 54.7389679 157.15829468 C54.70959251 160.66279379 54.74103988 164.16432315 54.78413153 167.66857958 C54.81871754 171.34151126 54.79638148 175.01410693 54.78030396 178.68710327 C54.75845476 185.62874925 54.78716348 192.56921091 54.834427 199.51069295 C54.8857825 207.41895277 54.88018469 215.32685947 54.87000632 223.23524213 C54.85035031 239.49074415 54.90906952 255.74468323 55 272 C36.85 272 18.7 272 0 272 C0 182.24 0 92.48 0 0 Z " fill="#000000" transform="translate(618,9)"/>
<path d="M0 0 C22.000263 -0.37251441 43.43704818 2.68002777 63.484375 12.12109375 C64.31839844 12.4871875 65.15242188 12.85328125 66.01171875 13.23046875 C85.11855063 22.04436276 100.35922064 38.20762573 108.296875 57.55859375 C111.85600544 67.50251561 113.484375 76.53740453 113.484375 87.12109375 C96.324375 87.12109375 79.164375 87.12109375 61.484375 87.12109375 C59.504375 81.18109375 57.524375 75.24109375 55.484375 69.12109375 C47.67651235 56.23812038 37.27255696 49.50931372 22.875 45.37109375 C4.23602389 41.30440805 -14.22062453 44.48560816 -30.515625 54.12109375 C-45.47456164 63.86747897 -52.44452513 82.84661936 -56.02246094 99.52978516 C-61.028676 125.83471913 -59.33640184 157.0363759 -44.515625 180.12109375 C-43.53593947 181.46942384 -42.53699753 182.80406075 -41.515625 184.12109375 C-41.06703125 184.73210937 -40.6184375 185.343125 -40.15625 185.97265625 C-31.64063723 196.83245456 -18.2389292 203.01163078 -4.7734375 204.83984375 C13.08147383 206.38127494 30.06539148 204.2793393 44.89453125 193.34375 C55.5604511 183.6231718 58.2403668 170.9081286 61.484375 157.12109375 C78.974375 157.12109375 96.464375 157.12109375 114.484375 157.12109375 C110.42154683 184.20661488 104.12331242 207.99028709 82.484375 226.12109375 C61.3597645 241.65503352 37.43975359 248.14048913 11.484375 249.12109375 C10.46472656 249.16234375 9.44507813 249.20359375 8.39453125 249.24609375 C-23.43783518 249.88836092 -53.98807145 240.82898056 -77.37036133 218.78125 C-98.9743828 197.70257885 -111.28115839 167.18670709 -111.70587158 137.03518677 C-111.71012146 136.3236142 -111.71437134 135.61204163 -111.71875 134.87890625 C-111.72445007 134.11166229 -111.73015015 133.34441833 -111.73602295 132.55392456 C-111.74541225 130.9353775 -111.75198256 129.31681184 -111.75585938 127.69824219 C-111.76546311 125.28674439 -111.79650146 122.87613864 -111.828125 120.46484375 C-111.92762517 105.98854018 -110.13888173 91.85715939 -105.828125 77.99609375 C-105.57393799 77.16972412 -105.31975098 76.34335449 -105.05786133 75.49194336 C-96.37796676 48.47541429 -78.20539781 26.3250855 -53.1640625 12.93359375 C-36.68919154 4.54056721 -18.39835435 0.63372109 0 0 Z " fill="#000000" transform="translate(1915.515625,745.87890625)"/>
<path d="M0 0 C16.83 0 33.66 0 51 0 C51.33 36.96 51.66 73.92 52 112 C62.59775046 98.4544841 62.59775046 98.4544841 72.875 84.6875 C81.09784425 73.44296576 89.57338355 62.39457556 98.04101562 51.33398438 C105.82030994 41.16794588 113.535925 30.96454775 121.10473633 20.640625 C134.20634965 2.79365035 134.20634965 2.79365035 137 0 C138.7492872 -0.09365006 140.50236254 -0.11744438 142.25415039 -0.11352539 C143.37523697 -0.11344986 144.49632355 -0.11337433 145.65138245 -0.11329651 C147.48103798 -0.10555458 147.48103798 -0.10555458 149.34765625 -0.09765625 C151.2100016 -0.09553383 151.2100016 -0.09553383 153.10997009 -0.09336853 C156.41605491 -0.08870591 159.72207146 -0.07971497 163.02813721 -0.06866455 C166.3996115 -0.05844827 169.77109283 -0.05387045 173.14257812 -0.04882812 C179.76173775 -0.03777395 186.38086493 -0.02101736 193 0 C191.69479829 3.39328078 190.45220159 5.973257 188.09375 8.75 C187.51987549 9.43408936 186.94600098 10.11817871 186.35473633 10.82299805 C185.43664185 11.90061401 185.43664185 11.90061401 184.5 13 C183.22102648 14.52597927 181.94369328 16.05333478 180.66796875 17.58203125 C180.04067871 18.33307129 179.41338867 19.08411133 178.76708984 19.85791016 C175.54219224 23.76717398 172.48804055 27.8003709 169.41796875 31.83203125 C162.57812992 40.79343559 155.53481043 49.59685401 148.4831543 58.3918457 C143.73505738 64.31871697 139.04200303 70.28784633 134.35888672 76.26611328 C131.6223001 79.75789161 128.87967334 83.2449289 126.13793945 86.73266602 C123.76896102 89.74676615 121.40223148 92.76259219 119.0390625 95.78125 C118.55115234 96.40386719 118.06324219 97.02648437 117.56054688 97.66796875 C116.63662307 98.84707151 115.71339007 100.02671608 114.79101562 101.20703125 C114.36755859 101.74714844 113.94410156 102.28726563 113.5078125 102.84375 C112.89534668 103.63265625 112.89534668 103.63265625 112.27050781 104.4375 C111.39700863 105.51174957 110.48147468 106.55272519 109.53417969 107.5625 C107.91490314 109.25254895 107.91490314 109.25254895 106 112 C106.28008173 116.07010615 107.76114499 118.43114598 110.24609375 121.58984375 C110.91326416 122.44908447 111.58043457 123.3083252 112.26782227 124.19360352 C112.98381592 125.09908936 113.69980957 126.0045752 114.4375 126.9375 C115.91566421 128.83990238 117.39222958 130.74354816 118.8671875 132.6484375 C119.58358398 133.57108398 120.29998047 134.49373047 121.03808594 135.44433594 C123.45869986 138.59751992 125.78155779 141.80754451 128.0625 145.0625 C132.63702863 151.56166006 137.40427723 157.90864154 142.18505859 164.25708008 C146.55442164 170.06259272 150.88558672 175.89435234 155.1875 181.75 C159.42917514 187.52234092 163.69301055 193.27621885 168 199 C174.1578755 207.18612188 180.23412087 215.4313616 186.29833984 223.68701172 C187.97225155 225.96228281 189.65140752 228.23358998 191.33203125 230.50390625 C192.34637948 231.87758548 193.36070372 233.25128241 194.375 234.625 C194.84558838 235.25865479 195.31617676 235.89230957 195.80102539 236.54516602 C199 240.88684864 199 240.88684864 199 242 C191.35123146 242.32597154 183.70319013 242.57390344 176.04903603 242.72537041 C172.49323086 242.79812384 168.94220985 242.89652704 165.38916016 243.05615234 C142.53882782 244.05586476 142.53882782 244.05586476 136.79785156 240.72067261 C132.91281643 237.12790932 131.03900456 232.80664104 129 228 C127.940399 226.4198879 126.83692212 224.86733369 125.671875 223.36328125 C125.18976563 222.69425781 124.70765625 222.02523437 124.2109375 221.3359375 C123.72882813 220.66820312 123.24671875 220.00046875 122.75 219.3125 C122.21117187 218.56613281 121.67234375 217.81976562 121.1171875 217.05078125 C116.52826664 210.70665102 111.88468391 204.4037212 107.23144531 198.10668945 C102.74230797 192.02521405 98.31032964 185.90437524 93.89453125 179.76953125 C89.96607879 174.31916016 85.99283915 168.903341 82 163.5 C77.38459845 157.25205694 72.79679603 150.98557393 68.25 144.6875 C67.76789063 144.01976562 67.28578125 143.35203125 66.7890625 142.6640625 C61.83692948 135.79198486 56.92344952 128.89282933 52 122 C51.67 161.6 51.34 201.2 51 242 C34.17 242 17.34 242 0 242 C0 162.14 0 82.28 0 0 Z " fill="#000000" transform="translate(460,749)"/>
<path d="M0 0 C0.65887207 0.20367187 1.31774414 0.40734375 1.99658203 0.6171875 C17.73575466 5.65745627 29.84488188 15.23453218 37.75 29.8125 C44.46223154 44.36674464 45.72831186 63.05548433 40.97265625 78.47265625 C35.82497332 91.8483625 28.13931086 101.32946225 16 109 C13.63671875 109.75 13.63671875 109.75 12 110 C12 110.66 12 111.32 12 112 C12.88429688 112.11601563 13.76859375 112.23203125 14.6796875 112.3515625 C27.04087922 114.76563053 38.08027019 125.24676299 45 135.375 C54.81238512 152.10391999 54.75420046 171.70081332 50 190 C44.97900629 206.46098331 33.65463702 218.7014303 18.75 226.75 C-6.98140664 240.11886279 -38.52214282 241.26959152 -66.16796875 233.3203125 C-83.95413959 227.4673405 -100.19093371 217.24646848 -109.3125 200.375 C-117.1479308 183.21998995 -119.17862978 163.03559542 -113 145 C-109.96923018 136.90606178 -105.05432636 131.07481477 -99 125 C-98.37222656 124.34902344 -97.74445312 123.69804688 -97.09765625 123.02734375 C-91.48360325 117.62693336 -82.97086745 112 -75 112 C-75 111.34 -75 110.68 -75 110 C-76.2065625 109.7215625 -76.2065625 109.7215625 -77.4375 109.4375 C-88.20750226 105.09170961 -97.19298695 95.21340297 -101.88720703 84.72338867 C-105.44214263 76.02323365 -106.47824905 67.84977549 -106.375 58.5 C-106.38660156 57.44941406 -106.39820312 56.39882813 -106.41015625 55.31640625 C-106.35380014 40.11904146 -101.35516399 27.11022803 -91 16 C-67.89765512 -6.21996365 -29.45519023 -9.39087984 0 0 Z M-55.30859375 42.03125 C-60.94847792 48.59591887 -62.24406759 56.53191587 -62 65 C-60.99239687 73.46386633 -58.24912547 80.10140575 -52 86 C-44.79341888 91.27878832 -35.97936532 94.22305148 -27 93 C-18.13640951 90.99970323 -10.92318109 87.75556507 -5.6953125 80.0859375 C-0.55873288 70.67512375 -0.25979116 61.05702989 -2.49609375 50.703125 C-4.4371687 44.48204008 -8.59459805 40.09660941 -14.09375 36.7109375 C-27.70155926 29.65315583 -44.13798736 31.37968189 -55.30859375 42.03125 Z M-61.45703125 143.9140625 C-66.76560458 151.09071607 -67.67272406 159.31465192 -67 168 C-65.00026972 179.68959981 -60.55493178 186.93176182 -51 194 C-42.11554071 199.15062507 -31.75564907 200.08185051 -21.8125 197.9375 C-12.37102853 195.16866689 -4.92631566 190.67814547 0 182 C4.75966281 172.03094247 5.59101827 160.49250651 2 150 C-2.06383955 141.47546157 -8.15586103 135.29334274 -16.88671875 131.7265625 C-33.17667186 126.12595016 -50.42719764 130.81461331 -61.45703125 143.9140625 Z " fill="#000000" transform="translate(2780,407)"/>
<path d="M0 0 C12.6521738 11.92688995 17.12633944 28.62475989 17.99258804 45.5104332 C18.055728 49.15546899 18.06037531 52.79540027 18.03955078 56.44091797 C18.03898475 57.82227571 18.03930695 59.20363406 18.04043579 60.58499146 C18.04100284 64.28657825 18.02935521 67.98803186 18.01528788 71.68958807 C18.00267086 75.57593937 18.00160146 79.4622947 17.99923706 83.34866333 C17.9930542 90.68641453 17.97668725 98.02410518 17.95653808 105.36182988 C17.93407886 113.72474382 17.9231606 122.08766086 17.91314721 130.45059752 C17.89231767 147.63377258 17.85568205 164.81686437 17.8125 182 C0.9825 182 -15.8475 182 -33.1875 182 C-34.3125 175.25 -34.3125 175.25 -34.50390625 171.9140625 C-34.56674805 170.86025391 -34.56674805 170.86025391 -34.63085938 169.78515625 C-34.67017578 169.07230469 -34.70949219 168.35945312 -34.75 167.625 C-34.79318359 166.88894531 -34.83636719 166.15289062 -34.88085938 165.39453125 C-34.98593799 163.59651932 -35.08712093 161.79828042 -35.1875 160 C-39.02240302 162.80894195 -42.76479101 165.57031546 -46.1875 168.875 C-62.56544635 183.11669248 -86.89839608 187.25197984 -107.85546875 186.19091797 C-127.29444741 184.59949405 -143.27771454 176.6563688 -156 161.75 C-165.27450197 149.0850551 -167.23405652 132.64926074 -165.72265625 117.37890625 C-163.4579754 103.08000888 -157.53431953 90.91116624 -145.7890625 82.2265625 C-115.26563147 61.7284226 -70.95654887 60.55870947 -35.1875 61 C-35.41088022 57.53942264 -35.67119567 54.08251789 -35.9375 50.625 C-35.999375 49.65949219 -36.06125 48.69398438 -36.125 47.69921875 C-36.70903798 40.44741386 -37.74049768 32.45228981 -43.09741211 27.0871582 C-52.42683604 19.61092923 -62.52465522 18.28087841 -74.1875 19 C-81.69420956 20.15139144 -88.24142469 22.18714532 -94.1875 27 C-94.74179688 27.43441406 -95.29609375 27.86882812 -95.8671875 28.31640625 C-102.26369259 34.41058896 -101.8763845 40.75553801 -104.1875 50 C-121.0175 50 -137.8475 50 -155.1875 50 C-153.85744629 30.04919439 -151.1278062 14.60825526 -136.29296875 0.57421875 C-103.70502452 -27.4370592 -32.69313326 -26.83023094 0 0 Z M-104.16015625 105.88671875 C-110.43907124 112.65556961 -111.6728874 118.66732221 -111.49609375 127.80859375 C-110.89213244 134.05462397 -108.46457069 138.06513391 -103.9375 142.3125 C-95.29156776 148.95069484 -85.66685474 149.0318733 -75.1875 148 C-60.18939972 145.24323759 -48.60799022 136.65809098 -38.1875 126 C-35.70389559 122.27459338 -35.9559133 120.36937027 -35.9921875 115.92578125 C-35.99643234 114.90003242 -35.99643234 114.90003242 -36.00076294 113.8535614 C-36.01194316 111.67302835 -36.03704309 109.49290855 -36.0625 107.3125 C-36.07253262 105.83268823 -36.08165798 104.35287001 -36.08984375 102.87304688 C-36.11187519 99.248564 -36.14638998 95.62432234 -36.1875 92 C-72.51395695 90.57155769 -72.51395695 90.57155769 -104.16015625 105.88671875 Z " fill="#000000" transform="translate(1975.1875,99)"/>
<path d="M0 0 C12.6521738 11.92688995 17.12633944 28.62475989 17.99258804 45.5104332 C18.055728 49.15546899 18.06037531 52.79540027 18.03955078 56.44091797 C18.03898475 57.82227571 18.03930695 59.20363406 18.04043579 60.58499146 C18.04100284 64.28657825 18.02935521 67.98803186 18.01528788 71.68958807 C18.00267086 75.57593937 18.00160146 79.4622947 17.99923706 83.34866333 C17.9930542 90.68641453 17.97668725 98.02410518 17.95653808 105.36182988 C17.93407886 113.72474382 17.9231606 122.08766086 17.91314721 130.45059752 C17.89231767 147.63377258 17.85568205 164.81686437 17.8125 182 C0.9825 182 -15.8475 182 -33.1875 182 C-34.3125 175.25 -34.3125 175.25 -34.50390625 171.9140625 C-34.56674805 170.86025391 -34.56674805 170.86025391 -34.63085938 169.78515625 C-34.67017578 169.07230469 -34.70949219 168.35945312 -34.75 167.625 C-34.79318359 166.88894531 -34.83636719 166.15289062 -34.88085938 165.39453125 C-34.98593799 163.59651932 -35.08712093 161.79828042 -35.1875 160 C-39.02240302 162.80894195 -42.76479101 165.57031546 -46.1875 168.875 C-62.56544635 183.11669248 -86.89839608 187.25197984 -107.85546875 186.19091797 C-127.29444741 184.59949405 -143.27771454 176.6563688 -156 161.75 C-165.27450197 149.0850551 -167.23405652 132.64926074 -165.72265625 117.37890625 C-163.4579754 103.08000888 -157.53431953 90.91116624 -145.7890625 82.2265625 C-115.26563147 61.7284226 -70.95654887 60.55870947 -35.1875 61 C-35.41088022 57.53942264 -35.67119567 54.08251789 -35.9375 50.625 C-35.999375 49.65949219 -36.06125 48.69398438 -36.125 47.69921875 C-36.70903798 40.44741386 -37.74049768 32.45228981 -43.09741211 27.0871582 C-52.42683604 19.61092923 -62.52465522 18.28087841 -74.1875 19 C-81.69420956 20.15139144 -88.24142469 22.18714532 -94.1875 27 C-94.74179687 27.43441406 -95.29609375 27.86882812 -95.8671875 28.31640625 C-102.26369259 34.41058896 -101.8763845 40.75553801 -104.1875 50 C-121.0175 50 -137.8475 50 -155.1875 50 C-153.85744629 30.04919439 -151.1278062 14.60825526 -136.29296875 0.57421875 C-103.70502452 -27.4370592 -32.69313326 -26.83023094 0 0 Z M-104.16015625 105.88671875 C-110.43907124 112.65556961 -111.6728874 118.66732221 -111.49609375 127.80859375 C-110.89213244 134.05462397 -108.46457069 138.06513391 -103.9375 142.3125 C-95.29156776 148.95069484 -85.66685474 149.0318733 -75.1875 148 C-60.18939972 145.24323759 -48.60799022 136.65809098 -38.1875 126 C-35.70389559 122.27459338 -35.9559133 120.36937027 -35.9921875 115.92578125 C-35.99643234 114.90003242 -35.99643234 114.90003242 -36.00076294 113.8535614 C-36.01194316 111.67302835 -36.03704309 109.49290855 -36.0625 107.3125 C-36.07253262 105.83268823 -36.08165798 104.35287001 -36.08984375 102.87304688 C-36.11187519 99.248564 -36.14638998 95.62432234 -36.1875 92 C-72.51395695 90.57155769 -72.51395695 90.57155769 -104.16015625 105.88671875 Z " fill="#000000" transform="translate(1013.1875,99)"/>
<path d="M0 0 C1.76210815 0.00845947 1.76210815 0.00845947 3.55981445 0.01708984 C29.94051082 0.38200806 53.07201862 8.29798533 72.5 26.6875 C92.30515723 47.28300388 96.87597362 75.91631485 96.9453125 103.33984375 C96.8125 106.3125 96.8125 106.3125 95.8125 112.3125 C50.2725 112.3125 4.7325 112.3125 -42.1875 112.3125 C-39.93739935 128.06320455 -37.70057371 143.40366651 -25.1875 154.3125 C-24.445 154.993125 -23.7025 155.67375 -22.9375 156.375 C-12.38131318 163.81231344 0.70312023 165.21756558 13.3125 163.6875 C18.94711334 162.6741732 23.83717356 161.14277552 28.8125 158.3125 C29.44800781 157.97605469 30.08351563 157.63960937 30.73828125 157.29296875 C36.13805854 154.02072684 38.81563334 149.2123333 40.8125 143.3125 C41.1425 140.6725 41.4725 138.0325 41.8125 135.3125 C59.6325 135.3125 77.4525 135.3125 95.8125 135.3125 C94.18076464 156.52505973 88.11639449 172.3307494 71.8125 186.3125 C46.47999267 204.58081917 10.97413211 207.85981411 -19.25 203.1875 C-45.86141269 198.54813238 -66.19307849 186.18321986 -81.796875 164.02734375 C-98.95927908 137.53177663 -100.26507502 100.60021702 -93.97314453 70.54589844 C-88.50676036 46.54690739 -75.98007032 26.83305739 -55.1875 13.3125 C-48.69931347 9.38732638 -41.97824781 6.74712368 -34.75 4.5625 C-34.09491455 4.36366211 -33.4398291 4.16482422 -32.76489258 3.95996094 C-22.00727349 0.91434145 -11.14432873 -0.0567059 0 0 Z M-32 51 C-38.76323367 59.29815195 -41.1875 67.82140986 -41.1875 78.3125 C-13.4675 78.3125 14.2525 78.3125 42.8125 78.3125 C40.67399026 64.41218671 38.95387106 54.08786914 27.48828125 45.58984375 C9.2569076 33.94122668 -16.59963775 34.7329507 -32 51 Z " fill="#000000" transform="translate(3136.1875,80.6875)"/>
<path d="M0 0 C1.76210815 0.00845947 1.76210815 0.00845947 3.55981445 0.01708984 C29.94051082 0.38200806 53.07201862 8.29798533 72.5 26.6875 C92.30515723 47.28300388 96.87597362 75.91631485 96.9453125 103.33984375 C96.8125 106.3125 96.8125 106.3125 95.8125 112.3125 C50.2725 112.3125 4.7325 112.3125 -42.1875 112.3125 C-39.93739935 128.06320455 -37.70057371 143.40366651 -25.1875 154.3125 C-24.445 154.993125 -23.7025 155.67375 -22.9375 156.375 C-12.38131318 163.81231344 0.70312023 165.21756558 13.3125 163.6875 C18.94711334 162.6741732 23.83717356 161.14277552 28.8125 158.3125 C29.44800781 157.97605469 30.08351563 157.63960937 30.73828125 157.29296875 C36.13805854 154.02072684 38.81563334 149.2123333 40.8125 143.3125 C41.1425 140.6725 41.4725 138.0325 41.8125 135.3125 C59.6325 135.3125 77.4525 135.3125 95.8125 135.3125 C94.18076464 156.52505973 88.11639449 172.3307494 71.8125 186.3125 C46.47999267 204.58081917 10.97413211 207.85981411 -19.25 203.1875 C-45.86141269 198.54813238 -66.19307849 186.18321986 -81.796875 164.02734375 C-98.95927908 137.53177663 -100.26507502 100.60021702 -93.97314453 70.54589844 C-88.50676036 46.54690739 -75.98007032 26.83305739 -55.1875 13.3125 C-48.69931347 9.38732638 -41.97824781 6.74712368 -34.75 4.5625 C-34.09491455 4.36366211 -33.4398291 4.16482422 -32.76489258 3.95996094 C-22.00727349 0.91434145 -11.14432873 -0.0567059 0 0 Z M-32 51 C-38.76323367 59.29815195 -41.1875 67.82140986 -41.1875 78.3125 C-13.4675 78.3125 14.2525 78.3125 42.8125 78.3125 C40.67399026 64.41218671 38.95387106 54.08786914 27.48828125 45.58984375 C9.2569076 33.94122668 -16.59963775 34.7329507 -32 51 Z " fill="#000000" transform="translate(2906.1875,80.6875)"/>
<path d="M0 0 C17.82 0 35.64 0 54 0 C54.01458252 3.80942139 54.02916504 7.61884277 54.04418945 11.54370117 C54.0946314 24.16049168 54.16109556 36.77715572 54.23571491 49.39382458 C54.28054794 57.039798 54.31999085 64.68572614 54.34643555 72.33178711 C54.36951741 79.00148848 54.40302759 85.67104503 54.44870156 92.34063131 C54.47249754 95.86725256 54.49131496 99.39373163 54.49761391 102.92043114 C54.50486786 106.87183577 54.53542003 110.82288644 54.56762695 114.77416992 C54.56619186 115.92432587 54.56475677 117.07448181 54.5632782 118.25949097 C54.69917916 130.12691948 56.09882464 140.95832046 64.625 149.6875 C72.18091467 155.5287308 81.84870873 155.79058493 91 155 C103.66656128 152.97020322 113.51621431 147.49864826 123 139 C123.57622384 138.57172378 124.15244768 138.14344755 124.74613285 137.70219326 C127.80604128 135.16924481 129.71841497 133.18612964 130.65182304 129.25430489 C130.90163857 125.84851467 130.93114241 122.50293941 130.88647461 119.08813477 C130.89725037 117.79964127 130.90802612 116.51114777 130.91912842 115.18360901 C130.94775371 111.66716055 130.93367172 108.15204952 130.91168666 104.63560224 C130.89601305 100.95463311 130.91993822 97.27392181 130.93959045 93.59300232 C130.97078445 86.63030201 130.96657369 79.66809525 130.94951588 72.70536417 C130.93182174 64.77538509 130.95378975 56.84566925 130.97902286 48.91572869 C131.03002169 32.6103035 131.02619386 16.30551168 131 0 C148.82 0 166.64 0 185 0 C185 65.01 185 130.02 185 197 C167.84 197 150.68 197 133 197 C132.34 188.09 131.68 179.18 131 170 C128.69 172.64 126.38 175.28 124 178 C121.80145045 179.81993947 119.71257836 181.46345894 117.375 183.0625 C116.46886963 183.69019287 116.46886963 183.69019287 115.54443359 184.33056641 C94.82536512 198.43682137 70.40730119 203.52899954 45.5625 198.9375 C30.54210348 195.10667526 18.06132626 186.74673703 9.52734375 173.71484375 C1.58424873 159.59604314 -0.47445112 144.09772284 -0.34057617 128.17016602 C-0.33972695 126.7591046 -0.34021078 125.34804186 -0.34190369 123.9369812 C-0.34275357 120.15894382 -0.32529409 116.38120059 -0.30418181 112.60323071 C-0.28524419 108.63548154 -0.28365127 104.66772332 -0.28010559 100.69993591 C-0.27083474 93.20989435 -0.24628924 85.71998641 -0.21605712 78.2300033 C-0.18235729 69.69295653 -0.1659882 61.15590289 -0.15097082 52.618806 C-0.11973435 35.07911319 -0.06478553 17.5396032 0 0 Z " fill="#000000" transform="translate(377,84)"/>
<path d="M0 0 C2.18553714 1.63638869 4.22534623 3.34617099 6.25390625 5.171875 C6.85203125 5.666875 7.45015625 6.161875 8.06640625 6.671875 C18.83704095 16.28851313 25.49995483 32.66917613 26.4309082 46.87231445 C27.09215738 78.30404336 19.19546012 100.24167554 -2.74609375 123.171875 C-16.56532919 137.39183715 -16.56532919 137.39183715 -23.79296875 143.50390625 C-26.32984748 145.67040068 -28.78358506 147.92130353 -31.24609375 150.171875 C-35.03618457 153.62831271 -38.85665408 157.04031354 -42.73046875 160.40234375 C-45.03217139 162.42302456 -47.29373754 164.48500118 -49.55859375 166.546875 C-54.07953688 170.63324685 -58.75057418 174.50218807 -63.49609375 178.32421875 C-65.76729124 180.12792661 -65.76729124 180.12792661 -67.74609375 182.171875 C-17.75109375 182.666875 -17.75109375 182.666875 33.25390625 183.171875 C33.25390625 196.701875 33.25390625 210.231875 33.25390625 224.171875 C-23.17609375 224.171875 -79.60609375 224.171875 -137.74609375 224.171875 C-137.74609375 190.171875 -137.74609375 190.171875 -130.87109375 181.609375 C-126.703125 178.6484375 -126.703125 178.6484375 -124.63916016 177.37597656 C-121.99871511 175.69649823 -119.81968094 173.63814381 -117.55859375 171.484375 C-116.78128906 170.78957031 -116.00398438 170.09476563 -115.203125 169.37890625 C-112.36551223 166.83001719 -109.5543288 164.25300275 -106.74609375 161.671875 C-102.29282495 157.58012096 -97.80949419 153.52364463 -93.30859375 149.484375 C-90.44008966 146.89572497 -87.59132725 144.28602354 -84.74609375 141.671875 C-81.0967985 138.31896921 -77.43439807 134.98189169 -73.74609375 131.671875 C-69.58974587 127.94045726 -65.45843563 124.18253561 -61.35205078 120.39624023 C-58.81190838 118.05539632 -56.25922874 115.73344571 -53.66796875 113.44921875 C-38.5760697 100.0682008 -25.73443265 84.59546331 -23.3671875 63.8515625 C-23.00413479 54.13111907 -24.80756177 44.29316103 -30.99609375 36.546875 C-36.87541913 30.64268989 -43.55225387 29.65609376 -51.65625 29.17578125 C-60.06674138 29.16514852 -67.17230541 30.76876129 -73.74609375 36.171875 C-82.86564177 45.29142302 -84.38122638 56.88806865 -85.74609375 69.171875 C-100.92609375 69.171875 -116.10609375 69.171875 -131.74609375 69.171875 C-131.74609375 45.81059188 -127.91988147 24.69313267 -111.7421875 7.07421875 C-82.89843372 -20.41483817 -32.43007191 -21.58929396 0 0 Z " fill="#000000" transform="translate(2604.74609375,416.828125)"/>
<path d="M0 0 C15.84 0 31.68 0 48 0 C48.33 29.7 48.66 59.4 49 90 C52.3 86.7 55.6 83.4 59 80 C76.7265108 66.29433353 97.24642281 61.9259528 119.3125 64.6875 C133.57705699 67.1208656 144.51827818 72.82700912 153.375 84.375 C165.2810091 101.86269948 164.43251367 121.842605 164.30418181 142.16590381 C164.2852113 145.68521529 164.28364875 149.20453748 164.28010559 152.72389221 C164.27084414 159.36395895 164.24631189 166.00387451 164.21605712 172.64387518 C164.18232738 180.21358597 164.1659808 187.78330462 164.15097082 195.35307205 C164.11975574 210.90215005 164.06481927 226.45102024 164 242 C148.16 242 132.32 242 116 242 C115.98541748 238.64497314 115.97083496 235.28994629 115.95581055 231.83325195 C115.90533655 220.71322558 115.838719 209.59333735 115.76428509 198.47344685 C115.71947978 191.73548773 115.68003082 184.99757966 115.65356445 178.25952148 C115.62743966 171.74954754 115.58697237 165.23980249 115.53681374 158.72997093 C115.52020699 156.25388639 115.50865435 153.77776232 115.50238609 151.30163002 C116.40460329 129.19281687 116.40460329 129.19281687 107.84375 109.58984375 C101.64757245 104.24695336 94.31260798 103.3260829 86.36328125 103.625 C73.13224209 105.10023782 62.9061983 111.28414731 54 121 C53.30872009 121.47552307 52.61744019 121.95104614 51.9052124 122.440979 C48.78920041 126.62630768 49.43043501 131.11483893 49.45410156 136.19433594 C49.44376389 137.3360878 49.43342621 138.47783966 49.42277527 139.65419006 C49.39325893 143.43106084 49.39184617 147.20739776 49.390625 150.984375 C49.37564941 153.60183744 49.35892358 156.21929041 49.34051514 158.83673096 C49.29995622 165.02376487 49.27961479 171.2106934 49.26654124 177.39783978 C49.25067074 184.44263304 49.21225501 191.48724695 49.17194796 198.53193617 C49.08955059 213.02124026 49.03843366 227.51051065 49 242 C32.83 242 16.66 242 0 242 C0 162.14 0 82.28 0 0 Z " fill="#000000" transform="translate(2070,749)"/>
<path d="M0 0 C15.84 0 31.68 0 48 0 C48.33 29.7 48.66 59.4 49 90 C52.3 86.7 55.6 83.4 59 80 C76.7265108 66.29433353 97.24642281 61.9259528 119.3125 64.6875 C133.57705699 67.1208656 144.51827818 72.82700912 153.375 84.375 C165.2810091 101.86269948 164.43251367 121.842605 164.30418181 142.16590381 C164.2852113 145.68521529 164.28364875 149.20453748 164.28010559 152.72389221 C164.27084414 159.36395895 164.24631189 166.00387451 164.21605712 172.64387518 C164.18232738 180.21358597 164.1659808 187.78330462 164.15097082 195.35307205 C164.11975574 210.90215005 164.06481927 226.45102024 164 242 C148.16 242 132.32 242 116 242 C115.98541748 238.64497314 115.97083496 235.28994629 115.95581055 231.83325195 C115.90533655 220.71322558 115.838719 209.59333735 115.76428509 198.47344685 C115.71947978 191.73548773 115.68003082 184.99757966 115.65356445 178.25952148 C115.62743966 171.74954754 115.58697237 165.23980249 115.53681374 158.72997093 C115.52020699 156.25388639 115.50865435 153.77776232 115.50238609 151.30163002 C116.40460329 129.19281687 116.40460329 129.19281687 107.84375 109.58984375 C101.64757245 104.24695336 94.31260798 103.3260829 86.36328125 103.625 C73.13224209 105.10023782 62.9061983 111.28414731 54 121 C53.30872009 121.47552307 52.61744019 121.95104614 51.9052124 122.440979 C48.78920041 126.62630768 49.43043501 131.11483893 49.45410156 136.19433594 C49.44376389 137.3360878 49.43342621 138.47783966 49.42277527 139.65419006 C49.39325893 143.43106084 49.39184617 147.20739776 49.390625 150.984375 C49.37564941 153.60183744 49.35892358 156.21929041 49.34051514 158.83673096 C49.29995622 165.02376487 49.27961479 171.2106934 49.26654124 177.39783978 C49.25067074 184.44263304 49.21225501 191.48724695 49.17194796 198.53193617 C49.08955059 213.02124026 49.03843366 227.51051065 49 242 C32.83 242 16.66 242 0 242 C0 162.14 0 82.28 0 0 Z " fill="#000000" transform="translate(1088,749)"/>
<path d="M0 0 C15.84 0 31.68 0 48 0 C48 50.49 48 100.98 48 153 C58.23 153 68.46 153 79 153 C79 166.2 79 179.4 79 193 C68.77 193 58.54 193 48 193 C48 207.19 48 221.38 48 236 C32.16 236 16.32 236 0 236 C0 221.81 0 207.62 0 193 C-34.65 193 -69.3 193 -105 193 C-105 152 -105 152 -94 136 C-92.288125 133.504375 -90.57625 131.00875 -88.8125 128.4375 C-84.27874452 121.83409879 -79.70406516 115.25953741 -75.125 108.6875 C-68.52229117 99.20944309 -61.98021987 89.6917603 -55.46875 80.15087891 C-48.73812728 70.29436524 -41.94763418 60.48052725 -35.125 50.6875 C-28.54161592 41.23708321 -22.01829064 31.74743171 -15.52587891 22.234375 C-12.98046055 18.507068 -10.42905019 14.78389608 -7.875 11.0625 C-7.42535889 10.40580322 -6.97571777 9.74910645 -6.51245117 9.07250977 C-4.39981052 5.99592352 -2.24032823 2.9871043 0 0 Z M0 63 C-1.76773817 65.54226263 -3.48331852 68.10186124 -5.1796875 70.69140625 C-6.28034788 72.35731469 -7.38160847 74.0228267 -8.48339844 75.68798828 C-9.35031311 77.0000827 -9.35031311 77.0000827 -10.23474121 78.33868408 C-13.09273827 82.6474195 -15.98731633 86.93125461 -18.8828125 91.21484375 C-20.07398594 92.97858935 -21.26514789 94.74234272 -22.45629883 96.50610352 C-23.05648834 97.39451935 -23.65667786 98.28293518 -24.27505493 99.19827271 C-29.2841234 106.61523729 -34.28498555 114.03774267 -39.28717041 121.45935059 C-40.88657382 123.83175433 -42.48687196 126.20355181 -44.08740234 128.57519531 C-46.27962725 131.82455594 -48.4672922 135.07692975 -50.65057373 138.33230591 C-51.42030076 139.47848635 -52.19164376 140.62358336 -52.96466064 141.76754761 C-54.00806809 143.31219868 -55.0452586 144.86104407 -56.08203125 146.41015625 C-56.65155518 147.25715088 -57.2210791 148.10414551 -57.80786133 148.97680664 C-59.1692202 150.89580262 -59.1692202 150.89580262 -59 153 C-39.2 153 -19.4 153 1 153 C1 123.3 1 93.6 1 63 C0.67 63 0.34 63 0 63 Z " fill="#000000" transform="translate(2957,405)"/>
<path d="M0 0 C49.17 0 98.34 0 149 0 C149 38.69918699 149 38.69918699 133.0625 58.4375 C129.16152888 63.29242039 125.28174194 68.16251773 121.4375 73.0625 C120.98624756 73.63750244 120.53499512 74.21250488 120.07006836 74.80493164 C117.81835634 77.6761367 115.57017465 80.55007211 113.32421875 83.42578125 C108.42461222 89.69073531 103.46857073 95.90247023 98.4375 102.0625 C94.5332111 106.84392621 90.68124883 111.65423148 86.9375 116.5625 C83.37116076 121.23682813 79.74387715 125.85328791 76.0625 130.4375 C71.9781264 135.52463587 67.91027141 140.6237879 63.875 145.75 C63.41359619 146.33450928 62.95219238 146.91901855 62.47680664 147.52124023 C60.55490444 149.96693585 58.72659123 152.41011315 57 155 C89.34 155 121.68 155 155 155 C155 168.86 155 182.72 155 197 C101.21 197 47.42 197 -8 197 C-8 157 -8 157 -2.3125 147.5625 C1.296875 144.21875 1.296875 144.21875 3.16992188 142.65625 C6.43381997 139.70236997 8.8615732 136.11139591 11.4375 132.5625 C16.42144706 125.94949092 21.6169799 119.53538369 26.90771484 113.16650391 C30.98517772 108.25287144 34.96268672 103.27375135 38.88720703 98.23754883 C42.36898282 93.77871165 45.92266549 89.38243134 49.5 85 C54.00173208 79.4839419 58.43749365 73.92341091 62.81835938 68.31103516 C67.0329764 62.92586209 71.3449949 57.62172735 75.67382812 52.328125 C76.19396484 51.69132812 76.71410156 51.05453125 77.25 50.3984375 C77.70890625 49.83817871 78.1678125 49.27791992 78.640625 48.70068359 C80.13421141 46.83209112 81.5647029 44.91372946 83 43 C41.915 42.505 41.915 42.505 0 42 C0 28.14 0 14.28 0 0 Z " fill="#000000" transform="translate(2622,84)"/>
<path d="M0 0 C9.7403818 9.26185274 15.20823815 20.90422903 15.81054783 34.45604515 C15.80962604 35.4091791 15.80870424 36.36231304 15.80775452 37.34432983 C15.80981651 38.99746185 15.80981651 38.99746185 15.81192017 40.68399048 C15.80832489 41.87801483 15.80472961 43.07203918 15.80102539 44.30224609 C15.80117142 45.57108643 15.80131744 46.83992676 15.8014679 48.1472168 C15.801754 51.61370738 15.79588743 55.08016313 15.78889394 58.54664564 C15.78262934 62.17413117 15.78205415 65.80161756 15.78086853 69.42910767 C15.77776436 76.29252998 15.76956332 83.15593631 15.75951904 90.0193516 C15.74832949 97.83554296 15.74284029 105.65173509 15.73782361 113.46793246 C15.72737993 129.54113247 15.70904583 145.61431046 15.6875 161.6875 C0.8375 161.6875 -14.0125 161.6875 -29.3125 161.6875 C-29.9725 155.0875 -30.6325 148.4875 -31.3125 141.6875 C-32.88 143.193125 -34.4475 144.69875 -36.0625 146.25 C-50.9070545 159.91027856 -68.61522381 164.84355556 -88.4375 164.9375 C-89.50226562 164.958125 -90.56703125 164.97875 -91.6640625 165 C-106.79443638 165.07344842 -122.46851961 160.33848534 -133.57421875 149.61328125 C-144.04452169 138.01359732 -147.45691649 125.18820342 -147.3125 109.6875 C-146.33964567 95.4688598 -142.81623471 85.51304082 -132.3125 75.6875 C-114.13546716 60.39618268 -89.0396335 57.9140183 -66.3125 55.6875 C-65.08917969 55.55472656 -63.86585938 55.42195312 -62.60546875 55.28515625 C-52.21817813 54.29135256 -41.73568257 54.59627786 -31.3125 54.6875 C-31.50229054 41.33116608 -31.50229054 41.33116608 -35.3125 28.6875 C-35.8075 27.615 -36.3025 26.5425 -36.8125 25.4375 C-41.74318577 20.01374565 -48.57021442 17.64487183 -55.75 16.75 C-66.23460553 16.25713393 -77.12289815 18.16527594 -85.16015625 25.3359375 C-90.37034192 31.40381958 -90.36490681 36.2479295 -92.3125 44.6875 C-107.1625 44.6875 -122.0125 44.6875 -137.3125 44.6875 C-136.36314287 29.49778584 -135.48431082 18.5073402 -126.3125 6.6875 C-125.57 5.65625 -124.8275 4.625 -124.0625 3.5625 C-97.03994218 -24.6883559 -28.88950496 -24.67645215 0 0 Z M-91.76171875 92.91015625 C-97.23297961 99.18074489 -99.12954997 105.59422559 -98.7265625 113.85546875 C-97.86133206 119.77331849 -95.74311398 123.87697224 -91 127.5625 C-82.79097695 132.69529968 -73.28238782 132.85218606 -63.96875 131.03515625 C-51.42564423 127.55593762 -38.64057391 119.67961086 -31.3125 108.6875 C-31.03579506 105.77819658 -31.03579506 105.77819658 -31.1171875 102.48828125 C-31.12363281 101.27978516 -31.13007813 100.07128906 -31.13671875 98.82617188 C-31.15347656 97.56353516 -31.17023437 96.30089844 -31.1875 95 C-31.19652344 93.72576172 -31.20554687 92.45152344 -31.21484375 91.13867188 C-31.23844359 87.98809373 -31.27136806 84.83789017 -31.3125 81.6875 C-63.29681448 80.43436958 -63.29681448 80.43436958 -91.76171875 92.91015625 Z " fill="#000000" transform="translate(2945.3125,829.3125)"/>
<path d="M0 0 C9.7403818 9.26185274 15.20823815 20.90422903 15.81054783 34.45604515 C15.80962604 35.4091791 15.80870424 36.36231304 15.80775452 37.34432983 C15.80981651 38.99746185 15.80981651 38.99746185 15.81192017 40.68399048 C15.80832489 41.87801483 15.80472961 43.07203918 15.80102539 44.30224609 C15.80117142 45.57108643 15.80131744 46.83992676 15.8014679 48.1472168 C15.801754 51.61370738 15.79588743 55.08016313 15.78889394 58.54664564 C15.78262934 62.17413117 15.78205415 65.80161756 15.78086853 69.42910767 C15.77776436 76.29252998 15.76956332 83.15593631 15.75951904 90.0193516 C15.74832949 97.83554296 15.74284029 105.65173509 15.73782361 113.46793246 C15.72737993 129.54113247 15.70904583 145.61431046 15.6875 161.6875 C0.8375 161.6875 -14.0125 161.6875 -29.3125 161.6875 C-29.9725 155.0875 -30.6325 148.4875 -31.3125 141.6875 C-32.88 143.193125 -34.4475 144.69875 -36.0625 146.25 C-50.9070545 159.91027856 -68.61522381 164.84355556 -88.4375 164.9375 C-89.50226563 164.958125 -90.56703125 164.97875 -91.6640625 165 C-106.79443638 165.07344842 -122.46851961 160.33848534 -133.57421875 149.61328125 C-144.04452169 138.01359732 -147.45691649 125.18820342 -147.3125 109.6875 C-146.33964567 95.4688598 -142.81623471 85.51304082 -132.3125 75.6875 C-114.13546716 60.39618268 -89.0396335 57.9140183 -66.3125 55.6875 C-65.08917969 55.55472656 -63.86585937 55.42195312 -62.60546875 55.28515625 C-52.21817813 54.29135256 -41.73568257 54.59627786 -31.3125 54.6875 C-31.50229054 41.33116608 -31.50229054 41.33116608 -35.3125 28.6875 C-35.8075 27.615 -36.3025 26.5425 -36.8125 25.4375 C-41.74318577 20.01374565 -48.57021442 17.64487183 -55.75 16.75 C-66.23460553 16.25713393 -77.12289815 18.16527594 -85.16015625 25.3359375 C-90.37034192 31.40381958 -90.36490681 36.2479295 -92.3125 44.6875 C-107.1625 44.6875 -122.0125 44.6875 -137.3125 44.6875 C-136.36314287 29.49778584 -135.48431082 18.5073402 -126.3125 6.6875 C-125.57 5.65625 -124.8275 4.625 -124.0625 3.5625 C-97.03994218 -24.6883559 -28.88950496 -24.67645215 0 0 Z M-91.76171875 92.91015625 C-97.23297961 99.18074489 -99.12954997 105.59422559 -98.7265625 113.85546875 C-97.86133206 119.77331849 -95.74311398 123.87697224 -91 127.5625 C-82.79097695 132.69529968 -73.28238782 132.85218606 -63.96875 131.03515625 C-51.42564423 127.55593762 -38.64057391 119.67961086 -31.3125 108.6875 C-31.03579506 105.77819658 -31.03579506 105.77819658 -31.1171875 102.48828125 C-31.12363281 101.27978516 -31.13007812 100.07128906 -31.13671875 98.82617188 C-31.15347656 97.56353516 -31.17023438 96.30089844 -31.1875 95 C-31.19652344 93.72576172 -31.20554687 92.45152344 -31.21484375 91.13867188 C-31.23844359 87.98809373 -31.27136806 84.83789017 -31.3125 81.6875 C-63.29681448 80.43436958 -63.29681448 80.43436958 -91.76171875 92.91015625 Z " fill="#000000" transform="translate(1439.3125,829.3125)"/>
<path d="M0 0 C9.7403818 9.26185274 15.20823815 20.90422903 15.81054783 34.45604515 C15.80962604 35.4091791 15.80870424 36.36231304 15.80775452 37.34432983 C15.80981651 38.99746185 15.80981651 38.99746185 15.81192017 40.68399048 C15.80832489 41.87801483 15.80472961 43.07203918 15.80102539 44.30224609 C15.80117142 45.57108643 15.80131744 46.83992676 15.8014679 48.1472168 C15.801754 51.61370738 15.79588743 55.08016313 15.78889394 58.54664564 C15.78262934 62.17413117 15.78205415 65.80161756 15.78086853 69.42910767 C15.77776436 76.29252998 15.76956332 83.15593631 15.75951904 90.0193516 C15.74832949 97.83554296 15.74284029 105.65173509 15.73782361 113.46793246 C15.72737993 129.54113247 15.70904583 145.61431046 15.6875 161.6875 C0.8375 161.6875 -14.0125 161.6875 -29.3125 161.6875 C-29.9725 155.0875 -30.6325 148.4875 -31.3125 141.6875 C-32.88 143.193125 -34.4475 144.69875 -36.0625 146.25 C-50.9070545 159.91027856 -68.61522381 164.84355556 -88.4375 164.9375 C-89.50226562 164.958125 -90.56703125 164.97875 -91.6640625 165 C-106.79443638 165.07344842 -122.46851961 160.33848534 -133.57421875 149.61328125 C-144.04452169 138.01359732 -147.45691649 125.18820342 -147.3125 109.6875 C-146.33964567 95.4688598 -142.81623471 85.51304082 -132.3125 75.6875 C-114.13546716 60.39618268 -89.0396335 57.9140183 -66.3125 55.6875 C-65.08917969 55.55472656 -63.86585938 55.42195312 -62.60546875 55.28515625 C-52.21817813 54.29135256 -41.73568257 54.59627786 -31.3125 54.6875 C-31.50229054 41.33116608 -31.50229054 41.33116608 -35.3125 28.6875 C-35.8075 27.615 -36.3025 26.5425 -36.8125 25.4375 C-41.74318577 20.01374565 -48.57021442 17.64487183 -55.75 16.75 C-66.23460553 16.25713393 -77.12289815 18.16527594 -85.16015625 25.3359375 C-90.37034192 31.40381958 -90.36490681 36.2479295 -92.3125 44.6875 C-107.1625 44.6875 -122.0125 44.6875 -137.3125 44.6875 C-136.36314287 29.49778584 -135.48431082 18.5073402 -126.3125 6.6875 C-125.57 5.65625 -124.8275 4.625 -124.0625 3.5625 C-97.03994218 -24.6883559 -28.88950496 -24.67645215 0 0 Z M-91.76171875 92.91015625 C-97.23297961 99.18074489 -99.12954997 105.59422559 -98.7265625 113.85546875 C-97.86133206 119.77331849 -95.74311398 123.87697224 -91 127.5625 C-82.79097695 132.69529968 -73.28238782 132.85218606 -63.96875 131.03515625 C-51.42564423 127.55593762 -38.64057391 119.67961086 -31.3125 108.6875 C-31.03579506 105.77819658 -31.03579506 105.77819658 -31.1171875 102.48828125 C-31.12363281 101.27978516 -31.13007812 100.07128906 -31.13671875 98.82617188 C-31.15347656 97.56353516 -31.17023438 96.30089844 -31.1875 95 C-31.19652344 93.72576172 -31.20554687 92.45152344 -31.21484375 91.13867188 C-31.23844359 87.98809373 -31.27136806 84.83789017 -31.3125 81.6875 C-63.29681448 80.43436958 -63.29681448 80.43436958 -91.76171875 92.91015625 Z " fill="#000000" transform="translate(823.3125,829.3125)"/>
<path d="M0 0 C15.39334659 14.96364726 21.44081313 33.12242289 24 54 C24 62.25 24 70.5 24 79 C-16.59 79 -57.18 79 -99 79 C-95.95732186 98.30045607 -95.95732186 98.30045607 -86 114 C-86 114.66 -86 115.32 -86 116 C-85.44183594 116.27714844 -84.88367187 116.55429687 -84.30859375 116.83984375 C-82.73199525 117.63214452 -81.16188483 118.43745523 -79.59765625 119.25390625 C-78.76105469 119.68574219 -77.92445312 120.11757813 -77.0625 120.5625 C-75.81146484 121.21412109 -75.81146484 121.21412109 -74.53515625 121.87890625 C-65.06155526 126.06831069 -49.67227469 125.62367676 -40.07421875 122.0390625 C-33.37787271 118.68458407 -29.02959706 114.87485487 -26 108 C-25.34 105.03 -24.68 102.06 -24 99 C-8.16 99 7.68 99 24 99 C21.55084223 117.36868326 17.4273958 132.01270562 3 144 C-21.65250593 161.80274925 -52.86419771 163.22030848 -82 159 C-95.66302154 156.61990972 -108.37685097 150.94948003 -119 142 C-119.64066406 141.51402344 -120.28132813 141.02804687 -120.94140625 140.52734375 C-136.97494163 127.75699366 -144.36701228 106.66704056 -147 87 C-150.25729147 58.24009711 -146.24608654 28.99219344 -128.26171875 5.53125 C-121.72310213 -1.78658 -113.90568296 -7.85399298 -105 -12 C-104.09894531 -12.42925781 -103.19789062 -12.85851562 -102.26953125 -13.30078125 C-70.07710271 -27.71720566 -26.52788508 -24.07717285 0 0 Z M-80 17 C-80.72703125 17.33902344 -81.4540625 17.67804688 -82.203125 18.02734375 C-89.87940017 22.14381956 -94.56978378 29.79295039 -97.4921875 37.8203125 C-98.27050626 41.1610961 -98.57452985 44.5962388 -99 48 C-74.25 48 -49.5 48 -24 48 C-25.09249551 37.07504493 -26.67184048 28.53775549 -35 21 C-47.70328978 10.95235485 -65.67821498 9.90931232 -80 17 Z " fill="#000000" transform="translate(1843,484)"/>
<path d="M0 0 C15.39334659 14.96364726 21.44081313 33.12242289 24 54 C24 62.25 24 70.5 24 79 C-16.59 79 -57.18 79 -99 79 C-95.95732186 98.30045607 -95.95732186 98.30045607 -86 114 C-86 114.66 -86 115.32 -86 116 C-85.44183594 116.27714844 -84.88367187 116.55429687 -84.30859375 116.83984375 C-82.73199525 117.63214452 -81.16188483 118.43745523 -79.59765625 119.25390625 C-78.76105469 119.68574219 -77.92445312 120.11757813 -77.0625 120.5625 C-75.81146484 121.21412109 -75.81146484 121.21412109 -74.53515625 121.87890625 C-65.06155526 126.06831069 -49.67227469 125.62367676 -40.07421875 122.0390625 C-33.37787271 118.68458407 -29.02959706 114.87485487 -26 108 C-25.34 105.03 -24.68 102.06 -24 99 C-8.16 99 7.68 99 24 99 C21.55084223 117.36868326 17.4273958 132.01270562 3 144 C-21.65250593 161.80274925 -52.86419771 163.22030848 -82 159 C-95.66302154 156.61990972 -108.37685097 150.94948003 -119 142 C-119.64066406 141.51402344 -120.28132813 141.02804687 -120.94140625 140.52734375 C-136.97494163 127.75699366 -144.36701228 106.66704056 -147 87 C-150.25729147 58.24009711 -146.24608654 28.99219344 -128.26171875 5.53125 C-121.72310213 -1.78658 -113.90568296 -7.85399298 -105 -12 C-104.09894531 -12.42925781 -103.19789062 -12.85851562 -102.26953125 -13.30078125 C-70.07710271 -27.71720566 -26.52788508 -24.07717285 0 0 Z M-80 17 C-80.72703125 17.33902344 -81.4540625 17.67804688 -82.203125 18.02734375 C-89.87940017 22.14381956 -94.56978378 29.79295039 -97.4921875 37.8203125 C-98.27050626 41.1610961 -98.57452985 44.5962388 -99 48 C-74.25 48 -49.5 48 -24 48 C-25.09249551 37.07504493 -26.67184048 28.53775549 -35 21 C-47.70328978 10.95235485 -65.67821498 9.90931232 -80 17 Z " fill="#000000" transform="translate(1237,484)"/>
<path d="M0 0 C1.05832031 0.30164063 2.11664062 0.60328125 3.20703125 0.9140625 C23.23682287 7.11196028 39.49408537 19.82239347 50 38 C62.74609757 63.57679312 64.31442869 95.06823221 56.32421875 122.3359375 C52.54434879 132.79469274 47.51438257 142.72772906 40 151 C39.35804688 151.73347656 38.71609375 152.46695313 38.0546875 153.22265625 C23.87470084 168.47529873 2.76594546 177.23847584 -17.93896484 178.12597656 C-45.45768289 178.76117853 -45.45768289 178.76117853 -58 175 C-59.15886719 174.6596875 -60.31773437 174.319375 -61.51171875 173.96875 C-82.69916078 167.06942894 -98.25083835 154.00255445 -108.8125 134.25 C-121.5620103 107.27534163 -120.50050224 73.97310677 -110.8125 46.25 C-102.78658192 26.6448936 -88.10757213 11.93546571 -68.65234375 3.55859375 C-65.13159775 2.22888697 -61.60677679 1.07377324 -58 0 C-56.93136719 -0.32097656 -55.86273437 -0.64195312 -54.76171875 -0.97265625 C-37.59129257 -5.23060507 -16.97405608 -4.9835999 0 0 Z M-56.94140625 45.05078125 C-69.49374411 61.18175539 -69.83388254 84.98371521 -67.57421875 104.4140625 C-65.56251746 116.13870189 -61.04411264 127.93143804 -51.41796875 135.4453125 C-40.92594651 142.19139465 -28.9557709 142.36651738 -16.90234375 140.52734375 C-7.55690342 138.11515127 -0.9926229 132.07761676 4 124 C10.17918348 112.98220165 11.54510389 100.6161794 11.4375 88.1875 C11.42722778 86.35372803 11.42722778 86.35372803 11.41674805 84.48291016 C11.15523529 69.71086757 8.64204411 54.79560877 -1.8125 43.625 C-10.65228472 35.39885887 -20.74683502 33.54003062 -32.53515625 33.75390625 C-42.12713218 34.43518526 -50.29122771 38.02594476 -56.94140625 45.05078125 Z " fill="#000000" transform="translate(2304,466)"/>
<path d="M0 0 C15.84 0 31.68 0 48 0 C48.01458252 3.39055664 48.02916504 6.78111328 48.04418945 10.27441406 C48.09464023 21.50620438 48.16110606 32.7378624 48.23571491 43.96951675 C48.28054032 50.77588597 48.31998487 57.5822044 48.34643555 64.38867188 C48.37200144 70.96346934 48.41299453 77.53806815 48.46318626 84.1127243 C48.47980619 86.61475536 48.49135068 89.1168257 48.49761391 91.61890411 C48.50730791 95.13712621 48.53543127 98.65477291 48.56762695 102.17285156 C48.56619186 103.19569244 48.56475677 104.21853333 48.5632782 105.27236938 C48.67848749 114.2378732 49.56715403 125.2372645 56 132 C64.17233638 138.47912504 74.11780946 137.95312874 84 137 C90.37864852 135.99717124 95.93447827 133.47922664 101.26676941 129.85385132 C104 128 104 128 106.85517883 126.41860962 C111.29508887 123.39877178 114.33712945 120.70351867 115.62734604 115.4413681 C116.66574195 107.40332655 116.40817109 99.29719475 116.29296875 91.2109375 C116.29489188 88.57963288 116.30166202 85.94832773 116.31306458 83.31704712 C116.33180426 77.11893777 116.29494671 70.92248493 116.23759204 64.72466338 C116.17498754 57.66283052 116.17515188 50.60142227 116.18031728 43.53936458 C116.18954093 29.02558163 116.11254016 14.5133649 116 0 C132.17 0 148.34 0 165 0 C165 57.75 165 115.5 165 175 C149.49 175 133.98 175 118 175 C117.67 169.39 117.34 163.78 117 158 C116.67 156.02 116.34 154.04 116 152 C115.51273438 152.54527344 115.02546875 153.09054687 114.5234375 153.65234375 C99.23099631 169.91794028 80.187784 176.86334707 58.23046875 178.1640625 C43.48638888 178.59829243 29.2757608 175.16268693 17.6875 165.75 C6.58321263 155.17558527 0.74927091 140.26408485 -0.18040848 125.04706955 C-0.24444189 121.7346341 -0.24757055 118.42774073 -0.22705078 115.11474609 C-0.22734283 113.8648288 -0.22763489 112.6149115 -0.22793579 111.32711792 C-0.22678878 107.93102648 -0.21682245 104.5351842 -0.20278788 101.13913679 C-0.19020681 97.57841203 -0.18910424 94.01768325 -0.18673706 90.4569397 C-0.18054382 83.72820743 -0.16416248 76.99954088 -0.14403808 70.27083743 C-0.12161161 62.60449706 -0.11066875 54.93815341 -0.10064721 47.27178836 C-0.0797941 31.51448115 -0.04314513 15.75726434 0 0 Z " fill="#000000" transform="translate(2282,816)"/>
<path d="M0 0 C0.969375 0.680625 1.93875 1.36125 2.9375 2.0625 C13.58438423 11.23219872 18.17418969 26.56047072 20 40 C20.25636727 44.30546911 20.25405961 48.59493215 20.22705078 52.90698242 C20.22734283 54.14729218 20.22763489 55.38760193 20.22793579 56.66549683 C20.22679011 60.03053962 20.21683517 63.39532987 20.20278788 66.76032805 C20.1901929 70.29035033 20.18910317 73.82037681 20.18673706 77.35041809 C20.18054784 84.01891025 20.16417206 90.68733597 20.14403808 97.35579902 C20.12159894 104.95444912 20.1106656 112.55310258 20.10064721 120.15177763 C20.07980323 135.76789665 20.04315942 151.38392429 20 167 C4.16 167 -11.68 167 -28 167 C-28.01458252 163.53838379 -28.02916504 160.07676758 -28.04418945 156.51025391 C-28.09459521 145.05493488 -28.16105248 133.59973998 -28.23571491 122.14455605 C-28.2805794 115.20136666 -28.32001526 108.2582275 -28.34643555 101.31494141 C-28.37196267 94.6104604 -28.4129298 87.90623395 -28.46318626 81.20188522 C-28.4798318 78.64796115 -28.49136043 76.09399828 -28.49761391 73.54002762 C-28.50727981 69.95434461 -28.53537044 66.36923279 -28.56762695 62.78369141 C-28.56619186 61.7349585 -28.56475677 60.68622559 -28.5632782 59.60571289 C-28.67564787 50.7350072 -30.04450167 41.92125481 -36 35 C-44.00750849 28.92419974 -51.06254935 28.25061848 -61 29 C-72.78923754 31.15472677 -81.98090775 37.25189937 -90 46 C-90.69127991 46.47552307 -91.38255981 46.95104614 -92.0947876 47.440979 C-95.21079959 51.62630768 -94.56956499 56.11483893 -94.54589844 61.19433594 C-94.55623611 62.3360878 -94.56657379 63.47783966 -94.57722473 64.65419006 C-94.60674107 68.43106084 -94.60815383 72.20739776 -94.609375 75.984375 C-94.62435059 78.60183744 -94.64107642 81.21929041 -94.65948486 83.83673096 C-94.70004378 90.02376487 -94.72038521 96.2106934 -94.73345876 102.39783978 C-94.74932926 109.44263304 -94.78774499 116.48724695 -94.82805204 123.53193617 C-94.91044941 138.02124026 -94.96156634 152.51051065 -95 167 C-111.17 167 -127.34 167 -144 167 C-144 109.25 -144 51.5 -144 -8 C-128.49 -8 -112.98 -8 -97 -8 C-96.505 0.415 -96.505 0.415 -96 9 C-95.505 11.97 -95.505 11.97 -95 15 C-94.44054688 14.38253906 -93.88109375 13.76507812 -93.3046875 13.12890625 C-70.47773176 -10.98252449 -28.40907957 -21.645013 0 0 Z " fill="#000000" transform="translate(3153,824)"/>
<path d="M0 0 C0.969375 0.680625 1.93875 1.36125 2.9375 2.0625 C13.58438423 11.23219872 18.17418969 26.56047072 20 40 C20.25636727 44.30546911 20.25405961 48.59493215 20.22705078 52.90698242 C20.22734283 54.14729218 20.22763489 55.38760193 20.22793579 56.66549683 C20.22679011 60.03053962 20.21683517 63.39532987 20.20278788 66.76032805 C20.1901929 70.29035033 20.18910317 73.82037681 20.18673706 77.35041809 C20.18054784 84.01891025 20.16417206 90.68733597 20.14403808 97.35579902 C20.12159894 104.95444912 20.1106656 112.55310258 20.10064721 120.15177763 C20.07980323 135.76789665 20.04315942 151.38392429 20 167 C4.16 167 -11.68 167 -28 167 C-28.01458252 163.53838379 -28.02916504 160.07676758 -28.04418945 156.51025391 C-28.09459521 145.05493488 -28.16105248 133.59973998 -28.23571491 122.14455605 C-28.2805794 115.20136666 -28.32001526 108.2582275 -28.34643555 101.31494141 C-28.37196267 94.6104604 -28.4129298 87.90623395 -28.46318626 81.20188522 C-28.4798318 78.64796115 -28.49136043 76.09399828 -28.49761391 73.54002762 C-28.50727981 69.95434461 -28.53537044 66.36923279 -28.56762695 62.78369141 C-28.56619186 61.7349585 -28.56475677 60.68622559 -28.5632782 59.60571289 C-28.67564787 50.7350072 -30.04450167 41.92125481 -36 35 C-44.00750849 28.92419974 -51.06254935 28.25061848 -61 29 C-72.78923754 31.15472677 -81.98090775 37.25189937 -90 46 C-90.69127991 46.47552307 -91.38255981 46.95104614 -92.0947876 47.440979 C-95.21079959 51.62630768 -94.56956499 56.11483893 -94.54589844 61.19433594 C-94.55623611 62.3360878 -94.56657379 63.47783966 -94.57722473 64.65419006 C-94.60674107 68.43106084 -94.60815383 72.20739776 -94.609375 75.984375 C-94.62435059 78.60183744 -94.64107642 81.21929041 -94.65948486 83.83673096 C-94.70004378 90.02376487 -94.72038521 96.2106934 -94.73345876 102.39783978 C-94.74932926 109.44263304 -94.78774499 116.48724695 -94.82805204 123.53193617 C-94.91044941 138.02124026 -94.96156634 152.51051065 -95 167 C-111.17 167 -127.34 167 -144 167 C-144 109.25 -144 51.5 -144 -8 C-128.49 -8 -112.98 -8 -97 -8 C-96.505 0.415 -96.505 0.415 -96 9 C-95.505 11.97 -95.505 11.97 -95 15 C-94.44054688 14.38253906 -93.88109375 13.76507812 -93.3046875 13.12890625 C-70.47773176 -10.98252449 -28.40907957 -21.645013 0 0 Z " fill="#000000" transform="translate(2640,824)"/>
<path d="M0 0 C0.969375 0.680625 1.93875 1.36125 2.9375 2.0625 C13.58438423 11.23219872 18.17418969 26.56047072 20 40 C20.25636727 44.30546911 20.25405961 48.59493215 20.22705078 52.90698242 C20.22734283 54.14729218 20.22763489 55.38760193 20.22793579 56.66549683 C20.22679011 60.03053962 20.21683517 63.39532987 20.20278788 66.76032805 C20.1901929 70.29035033 20.18910317 73.82037681 20.18673706 77.35041809 C20.18054784 84.01891025 20.16417206 90.68733597 20.14403808 97.35579902 C20.12159894 104.95444912 20.1106656 112.55310258 20.10064721 120.15177763 C20.07980323 135.76789665 20.04315942 151.38392429 20 167 C4.16 167 -11.68 167 -28 167 C-28.01458252 163.53838379 -28.02916504 160.07676758 -28.04418945 156.51025391 C-28.09459521 145.05493488 -28.16105248 133.59973998 -28.23571491 122.14455605 C-28.2805794 115.20136666 -28.32001526 108.2582275 -28.34643555 101.31494141 C-28.37196267 94.6104604 -28.4129298 87.90623395 -28.46318626 81.20188522 C-28.4798318 78.64796115 -28.49136043 76.09399828 -28.49761391 73.54002762 C-28.50727981 69.95434461 -28.53537044 66.36923279 -28.56762695 62.78369141 C-28.56619186 61.7349585 -28.56475677 60.68622559 -28.5632782 59.60571289 C-28.67564787 50.7350072 -30.04450167 41.92125481 -36 35 C-44.00750849 28.92419974 -51.06254935 28.25061848 -61 29 C-72.78923754 31.15472677 -81.98090775 37.25189937 -90 46 C-90.69127991 46.47552307 -91.38255981 46.95104614 -92.0947876 47.440979 C-95.21079959 51.62630768 -94.56956499 56.11483893 -94.54589844 61.19433594 C-94.55623611 62.3360878 -94.56657379 63.47783966 -94.57722473 64.65419006 C-94.60674107 68.43106084 -94.60815383 72.20739776 -94.609375 75.984375 C-94.62435059 78.60183744 -94.64107642 81.21929041 -94.65948486 83.83673096 C-94.70004378 90.02376487 -94.72038521 96.2106934 -94.73345876 102.39783978 C-94.74932926 109.44263304 -94.78774499 116.48724695 -94.82805204 123.53193617 C-94.91044941 138.02124026 -94.96156634 152.51051065 -95 167 C-111.17 167 -127.34 167 -144 167 C-144 109.25 -144 51.5 -144 -8 C-128.49 -8 -112.98 -8 -97 -8 C-96.505 0.415 -96.505 0.415 -96 9 C-95.505 11.97 -95.505 11.97 -95 15 C-94.44054688 14.38253906 -93.88109375 13.76507813 -93.3046875 13.12890625 C-70.47773176 -10.98252449 -28.40907957 -21.645013 0 0 Z " fill="#000000" transform="translate(2126,474)"/>
<path d="M0 0 C0.969375 0.680625 1.93875 1.36125 2.9375 2.0625 C13.58438423 11.23219872 18.17418969 26.56047072 20 40 C20.25636727 44.30546911 20.25405961 48.59493215 20.22705078 52.90698242 C20.22734283 54.14729218 20.22763489 55.38760193 20.22793579 56.66549683 C20.22679011 60.03053962 20.21683517 63.39532987 20.20278788 66.76032805 C20.1901929 70.29035033 20.18910317 73.82037681 20.18673706 77.35041809 C20.18054784 84.01891025 20.16417206 90.68733597 20.14403808 97.35579902 C20.12159894 104.95444912 20.1106656 112.55310258 20.10064721 120.15177763 C20.07980323 135.76789665 20.04315942 151.38392429 20 167 C4.16 167 -11.68 167 -28 167 C-28.01458252 163.53838379 -28.02916504 160.07676758 -28.04418945 156.51025391 C-28.09459521 145.05493488 -28.16105248 133.59973998 -28.23571491 122.14455605 C-28.2805794 115.20136666 -28.32001526 108.2582275 -28.34643555 101.31494141 C-28.37196267 94.6104604 -28.4129298 87.90623395 -28.46318626 81.20188522 C-28.4798318 78.64796115 -28.49136043 76.09399828 -28.49761391 73.54002762 C-28.50727981 69.95434461 -28.53537044 66.36923279 -28.56762695 62.78369141 C-28.56619186 61.7349585 -28.56475677 60.68622559 -28.5632782 59.60571289 C-28.67564787 50.7350072 -30.04450167 41.92125481 -36 35 C-44.00750849 28.92419974 -51.06254935 28.25061848 -61 29 C-72.78923754 31.15472677 -81.98090775 37.25189937 -90 46 C-90.69127991 46.47552307 -91.38255981 46.95104614 -92.0947876 47.440979 C-95.21079959 51.62630768 -94.56956499 56.11483893 -94.54589844 61.19433594 C-94.55623611 62.3360878 -94.56657379 63.47783966 -94.57722473 64.65419006 C-94.60674107 68.43106084 -94.60815383 72.20739776 -94.609375 75.984375 C-94.62435059 78.60183744 -94.64107642 81.21929041 -94.65948486 83.83673096 C-94.70004378 90.02376487 -94.72038521 96.2106934 -94.73345876 102.39783978 C-94.74932926 109.44263304 -94.78774499 116.48724695 -94.82805204 123.53193617 C-94.91044941 138.02124026 -94.96156634 152.51051065 -95 167 C-111.17 167 -127.34 167 -144 167 C-144 109.25 -144 51.5 -144 -8 C-128.49 -8 -112.98 -8 -97 -8 C-96.505 0.415 -96.505 0.415 -96 9 C-95.505 11.97 -95.505 11.97 -95 15 C-94.44054688 14.38253906 -93.88109375 13.76507813 -93.3046875 13.12890625 C-70.47773176 -10.98252449 -28.40907957 -21.645013 0 0 Z " fill="#000000" transform="translate(1446,474)"/>
<path d="M0 0 C8.23079163 7.81205501 13.29600392 17.60306852 14.75 28.875 C14.75 32.175 14.75 35.475 14.75 38.875 C-0.1 38.875 -14.95 38.875 -30.25 38.875 C-30.91 35.575 -31.57 32.275 -32.25 28.875 C-35.12902067 22.51716268 -40.0911921 20.45573586 -46.25 17.875 C-55.45733296 14.80588901 -68.72599214 15.62355338 -77.47265625 19.609375 C-80.20268888 21.55339824 -81.85908495 23.63050462 -82.8671875 26.83984375 C-82.95226563 27.49082031 -83.03734375 28.14179688 -83.125 28.8125 C-83.22554687 29.46089844 -83.32609375 30.10929687 -83.4296875 30.77734375 C-83.17045696 33.80357848 -82.05571886 35.45440273 -80.25 37.875 C-68.92729811 46.13367324 -52.80524406 48.55529676 -39.45678711 51.76708984 C-19.39831709 56.60724784 2.53087527 63.30253968 14.31640625 81.484375 C21.68698422 93.77536605 21.92492751 108.53227406 19.03125 122.29296875 C15.52150453 135.19733464 7.37568366 145.82597189 -3.875 153.0625 C-30.2388647 167.87456444 -65.49496215 167.97037765 -94.17578125 160.1953125 C-110.13417335 155.34125349 -122.23573708 146.68064103 -130.25 131.875 C-134.27653563 123.94440891 -135.25 114.65946604 -135.25 105.875 C-120.4 105.875 -105.55 105.875 -90.25 105.875 C-89.26 109.835 -88.27 113.795 -87.25 117.875 C-82.52307246 125.51080602 -75.41012247 128.26357723 -66.890625 130.4921875 C-55.50100569 132.14334533 -44.81233367 131.25391504 -34.3125 126.5625 C-30.77078502 123.6647332 -29.48313246 120.78554893 -28.9296875 116.25 C-28.75450084 111.95208723 -28.97427516 108.60567081 -30.5 104.5625 C-40.09402862 95.18651749 -54.73160562 93.00720877 -67.25488281 89.67578125 C-115.104791 76.88252246 -115.104791 76.88252246 -125.92578125 59.125 C-132.6406212 46.56071713 -134.51250132 32.92792138 -130.625 19.0625 C-126.02648093 5.85978324 -117.32419972 -2.66970953 -104.82397461 -8.7512207 C-74.07152437 -22.80025203 -26.85734197 -22.43521165 0 0 Z " fill="#000000" transform="translate(1642.25,480.125)"/>
<path d="M0 0 C1.56261568 1.49930062 3.10581903 3.01920505 4.625 4.5625 C5.28371094 5.2225 5.94242188 5.8825 6.62109375 6.5625 C17.47735385 18.14251077 20.625 33.12872124 20.625 48.5625 C5.115 48.5625 -10.395 48.5625 -26.375 48.5625 C-27.365 44.2725 -28.355 39.9825 -29.375 35.5625 C-33.53039779 28.36656724 -39.48859729 23.22693111 -47.640625 20.921875 C-57.91522319 19.57149924 -69.26913185 19.01634296 -78.375 24.5625 C-79.20330322 25.0579834 -79.20330322 25.0579834 -80.04833984 25.56347656 C-84.81317052 28.64174274 -87.23867606 31.83809407 -89.625 36.9375 C-89.96144531 37.64519531 -90.29789063 38.35289062 -90.64453125 39.08203125 C-99.24454484 58.00206114 -99.04737073 82.62101942 -92.49609375 102.1875 C-89.18977703 110.37720502 -84.6814474 116.4121428 -76.81640625 120.5546875 C-66.77841423 124.69837061 -54.71521722 125.38997638 -44.3125 122 C-37.86837348 119.20885098 -32.53346618 115.12260516 -29.0625 108.9375 C-26.90372321 103.34067127 -25.72387236 97.40761355 -24.375 91.5625 C-8.865 91.5625 6.645 91.5625 22.625 91.5625 C20.22343371 113.17659663 16.12342816 129.97553694 -0.375 144.5625 C-20.84233011 160.87974463 -47.86542932 164.8144009 -73.3046875 162.1015625 C-96.6137615 159.09401674 -116.14582697 149.73027419 -131.14453125 131.30078125 C-133.55374005 127.8972958 -135.46161219 124.25955441 -137.375 120.5625 C-137.89900391 119.67691406 -137.89900391 119.67691406 -138.43359375 118.7734375 C-150.90687258 96.73892938 -149.72393747 63.20498683 -143.375 39.5625 C-137.45091737 19.15482372 -126.88650523 3.86519377 -108.49609375 -7.1640625 C-76.62697767 -24.07420573 -28.1434922 -24.58852476 0 0 Z " fill="#000000" transform="translate(1025.375,831.4375)"/>
<path d="M0 0 C1.56261568 1.49930062 3.10581903 3.01920505 4.625 4.5625 C5.28371094 5.2225 5.94242188 5.8825 6.62109375 6.5625 C17.47735385 18.14251077 20.625 33.12872124 20.625 48.5625 C5.115 48.5625 -10.395 48.5625 -26.375 48.5625 C-27.365 44.2725 -28.355 39.9825 -29.375 35.5625 C-33.53039779 28.36656724 -39.48859729 23.22693111 -47.640625 20.921875 C-57.91522319 19.57149924 -69.26913185 19.01634296 -78.375 24.5625 C-79.20330322 25.0579834 -79.20330322 25.0579834 -80.04833984 25.56347656 C-84.81317052 28.64174274 -87.23867606 31.83809407 -89.625 36.9375 C-89.96144531 37.64519531 -90.29789063 38.35289062 -90.64453125 39.08203125 C-99.24454484 58.00206114 -99.04737073 82.62101942 -92.49609375 102.1875 C-89.18977703 110.37720502 -84.6814474 116.4121428 -76.81640625 120.5546875 C-66.77841423 124.69837061 -54.71521722 125.38997638 -44.3125 122 C-37.86837348 119.20885098 -32.53346618 115.12260516 -29.0625 108.9375 C-26.90372321 103.34067127 -25.72387236 97.40761355 -24.375 91.5625 C-8.865 91.5625 6.645 91.5625 22.625 91.5625 C20.22343371 113.17659663 16.12342816 129.97553694 -0.375 144.5625 C-20.84233011 160.87974463 -47.86542932 164.8144009 -73.3046875 162.1015625 C-96.6137615 159.09401674 -116.14582697 149.73027419 -131.14453125 131.30078125 C-133.55374005 127.8972958 -135.46161219 124.25955441 -137.375 120.5625 C-137.89900391 119.67691406 -137.89900391 119.67691406 -138.43359375 118.7734375 C-150.90687258 96.73892938 -149.72393747 63.20498683 -143.375 39.5625 C-137.45091737 19.15482372 -126.88650523 3.86519377 -108.49609375 -7.1640625 C-76.62697767 -24.07420573 -28.1434922 -24.58852476 0 0 Z " fill="#000000" transform="translate(1035.375,481.4375)"/>
<path d="M0 0 C16.83 0 33.66 0 51 0 C51 65.01 51 130.02 51 197 C84.66 197 118.32 197 153 197 C153 211.85 153 226.7 153 242 C102.51 242 52.02 242 0 242 C0 162.14 0 82.28 0 0 Z " fill="#000000" transform="translate(615,399)"/>
<path d="M0 0 C0 13.53 0 27.06 0 41 C-4.16625 41.391875 -8.3325 41.78375 -12.625 42.1875 C-28.09076096 43.83196999 -42.71893085 46.55602406 -53.61301899 58.81512833 C-55.2614062 61.41178574 -55.38233746 62.86770257 -55.39872742 65.92279053 C-55.41126556 66.91274521 -55.42380371 67.90269989 -55.4367218 68.9226532 C-55.43528671 70.0023085 -55.43385162 71.08196381 -55.43237305 72.19433594 C-55.4425647 73.3360878 -55.45275635 74.47783966 -55.46325684 75.65419006 C-55.49346954 79.43096776 -55.5026657 83.20749216 -55.51171875 86.984375 C-55.52855924 89.60183562 -55.54670862 92.21928812 -55.56611633 94.83673096 C-55.60978206 101.02374029 -55.63832848 107.21072326 -55.66143972 113.39783978 C-55.68849107 120.44261665 -55.73240256 127.48725687 -55.77772844 134.53193617 C-55.87057571 149.0212221 -55.94003036 163.5105396 -56 178 C-72.17 178 -88.34 178 -105 178 C-105 120.25 -105 62.5 -105 3 C-89.49 3 -73.98 3 -58 3 C-57.67 11.58 -57.34 20.16 -57 29 C-55.88625 27.370625 -54.7725 25.74125 -53.625 24.0625 C-44.92377322 12.20688803 -33.98632598 3.98680253 -19.25390625 1.30078125 C-12.80052304 0.43958453 -6.51633023 0 0 0 Z " fill="#000000" transform="translate(1608,813)"/>
<path d="M0 0 C16.17 0 32.34 0 49 0 C49 57.75 49 115.5 49 175 C32.83 175 16.66 175 0 175 C0 117.25 0 59.5 0 0 Z " fill="#000000" transform="translate(2709,816)"/>
<path d="M0 0 C16.17 0 32.34 0 49 0 C49 57.75 49 115.5 49 175 C32.83 175 16.66 175 0 175 C0 117.25 0 59.5 0 0 Z " fill="#000000" transform="translate(1638,816)"/>
<path d="M0 0 C16.17 0 32.34 0 49 0 C49 57.75 49 115.5 49 175 C32.83 175 16.66 175 0 175 C0 117.25 0 59.5 0 0 Z " fill="#000000" transform="translate(799,466)"/>
<path d="M0 0 C4.7438181 3.18031251 7.98446274 7.19548798 10.5234375 12.2734375 C11.84395687 19.60965623 11.9389926 26.81271921 8.0859375 33.3984375 C3.23728511 39.78634461 -1.93627276 42.57913324 -9.73828125 43.86328125 C-19.39685033 44.96393765 -27.86285129 44.08164542 -35.9140625 38.3984375 C-41.06548049 33.36409719 -43.69513161 27.91871653 -44.046875 20.65625 C-43.67577651 12.77586437 -41.13165297 7.61602797 -35.6015625 2.0859375 C-25.53257012 -4.23645307 -10.90002569 -5.24540485 0 0 Z " fill="#000000" transform="translate(2749.9140625,749.6015625)"/>
<path d="M0 0 C4.7438181 3.18031251 7.98446274 7.19548798 10.5234375 12.2734375 C11.84395687 19.60965623 11.9389926 26.81271921 8.0859375 33.3984375 C3.23728511 39.78634461 -1.93627276 42.57913324 -9.73828125 43.86328125 C-19.39685033 44.96393765 -27.86285129 44.08164542 -35.9140625 38.3984375 C-41.06548049 33.36409719 -43.69513161 27.91871653 -44.046875 20.65625 C-43.67577651 12.77586437 -41.13165297 7.61602797 -35.6015625 2.0859375 C-25.53257012 -4.23645307 -10.90002569 -5.24540485 0 0 Z " fill="#000000" transform="translate(1678.9140625,749.6015625)"/>
<path d="M0 0 C4.7438181 3.18031251 7.98446274 7.19548798 10.5234375 12.2734375 C11.84395687 19.60965623 11.9389926 26.81271921 8.0859375 33.3984375 C3.23728511 39.78634461 -1.93627276 42.57913324 -9.73828125 43.86328125 C-19.39685033 44.96393765 -27.86285129 44.08164542 -35.9140625 38.3984375 C-41.06548049 33.36409719 -43.69513161 27.91871653 -44.046875 20.65625 C-43.67577651 12.77586437 -41.13165297 7.61602797 -35.6015625 2.0859375 C-25.53257012 -4.23645307 -10.90002569 -5.24540485 0 0 Z " fill="#000000" transform="translate(839.9140625,399.6015625)"/>
</svg>
